<?xml version="1.0" encoding="utf-8"?>
<svg version="1.1" xmlns:xlink="http://www.w3.org/1999/xlink" width="30px" height="30px" xmlns="http://www.w3.org/2000/svg">
  <g transform="matrix(1 0 0 1 -796 -14 )">
    <path d="M 22.99749788085937 16.87499519486824  C 23.159997832031245 16.87499519486824  23.321664462890624 16.880828524905706  23.480831103515623 16.891661864673928  L 23.480831103515623 8.78916415748273  L 18.938332353515623 8.78916415748273  C 17.39416611328125 8.78916415748273  16.142499785156247 7.529997838135093  16.142499785156247 5.976664968103648  L 16.142499785156247 2  L 3.10750341796875 2  C 2.3933369531250004 1.4066662694913235  1.8141704296875 1.9883327791085332  2 2.7066658991011963  L 2 25.41832608258024  C 1.8141704589843752 26.136659202572904  2.3933369531250004 26.718325712190115  3.10750341796875 26.718325712190115  L 17.29249948242187 26.71832571219011  C 16.713888386973135 25.721866229185263  16.40994225231119 24.5897603693764  16.41166637695312 23.437493332716304  C 16.41166637695312 19.812494363844728  19.359998876953124 16.87499519486824  22.99749788085937 16.87499519486824  Z M 24.87916403320312 7.848331087869189  L 24.879164033203125 17.14666177500576  C 27.59916328125 17.953328224460794  29.583329384765626 20.464994154218164  29.583329384765626 23.437493332716297  C 29.583329384765626 27.06249230158788  26.634996884765624 29.999991470564364  22.997497880859374 29.999991470564364  C 21.274839251090466 30.00276399588963  19.61986252986344 29.329522691536635  18.388332509765625 28  L 3.10750341796875 28  C 1.6171186585781985 28.120396365852113  0.41252247835596306 26.90871214363963  1 25.41832608258024  L 1 2.7066658991011967  C 0.41252247835596 1.2162798380418103  1.6171186585782016 0.0045956158293306406  3.10750341796875 0  L 17.113332861328125 0  C 17.579078070843813 0.00014288763103665096  18.025363321118544 0.18682038058944664  18.3524991796875 0.518333199511817  L 24.370830849609373 6.609998127751328  C 24.695830751953125 6.939164687956783  24.87916403320312 7.384997907505231  24.87916403320312 7.848331087869189  Z M 23.164164521484377 7.383331237594973  L 17.539999423828128 1.691666179614029  L 17.539999423828128 5.977498288410342  C 17.539999423828128 6.7541647380745  18.165832587890627 7.383331208298099  18.938332353515626 7.383331237594974  L 23.163331171875004 7.383331237594974  Z M 6.357502529296875 12.304996496255912  C 5.5858360839843755 12.304996496255912  4.960002919921875 10.132497116868661  4.960002890625 9.404997327018023  C 4.960002890625 8.675830867257126  5.585002705078125 8.085831037385507  6.357502529296875 8.085831037385507  C 7.129168974609375 8.085831037385507  7.755002138671875 8.675830867257128  7.755002138671875 9.404163977414457  C 7.755002138671875 10.132497116868661  7.13000232421875 12.304163146652346  6.357502529296875 12.304163175949222  Z M 19.637498818359372 15  L 5.65833603515625 15  C 5.27225323272491 15.11528759921436  4.959998415699135 14.801918925827676  4.959998415699135 14.415833678457384  C 4.959998415699135 14.414998855617377  4.959999907343471 14.41416403344374  4.960002890624999 14.413329215934201  C 4.960002890624999 14.024996005750559  5.272502812499999 13.709996095836976  5.658336035156249 14  L 19.637498818359372 14  C 20.02333204101562 13.709996095836976  20.335831962890623 14.024996005750559  20.335831962890627 14.413329215934201  C 20.335834946172152 14.41416403344368  20.335836437816493 14.414998855617435  20.335836437816493 14.415833678457384  C 20.335836437816493 14.801918925827676  20.023581620790715 15.115287599214364  19.637498818359372 15  Z M 5.659169384765625 18  L 5.65833603515625 17.929161554707385  C 5.27225323276597 17.92778678853591  4.959998415803828 17.614418115166277  4.959998415803828 17.22833286783684  C 4.959998415803828 17.22749805476234  4.959999907413266 17.226663242354377  4.960002890624999 17.225828434610158  C 4.960002890624999 16.837495224426515  5.272502812499999 16.52249531451293  5.658336035156249 16  L 16.142499785156247 16  C 16.528333007812495 16.522495285216056  16.841666249999996 16.837495195129637  16.841666279296874 17.22582843461016  C 16.841669256622566 17.22666241839511  16.84167074528897 17.22749640683049  16.84167074528897 17.228330395929955  C 16.84167074528897 17.61474088487185  16.528909190006885 17.928245100161  16.142499785156247 18  L 5.659169384765625 18  Z M 12.647500781249999 20.741660773383337  L 5.65833603515625 20.74166077338334  C 5.27225323272491 20.740286007269397  4.959998415699135 20.426917333882713  4.959998415699135 20.040832086512424  C 4.959998415699135 20.039997263672415  4.959999907343471 20.039162441498775  4.960002890624999 20.038327623989236  C 4.960002890624999 19.649994413805594  5.272502812499999 19.33499450389201  5.658336035156249 19.33499450389201  L 12.647500781249999 19.33499450389201  C 13.034167353515624 19.33499450389201  13.347500595703124 19.64999441380559  13.347500566406248 20.038327623989236  C 13.347503540278053 20.03916112390176  13.347505027217506 20.039994628456782  13.347505027217506 20.040828133674573  C 13.347505027217506 20.427563921830505  13.034236301613895 20.74120337354487  12.647500781249999 20.741660773383337  Z M 12.647500781249999 23.554159962762416  L 5.65833603515625 23.55415996276242  C 5.27225323272491 23.552785196648475  4.959998415699135 23.23941652326179  4.959998415699135 22.853331275891502  C 4.959998415699135 22.852496453051497  4.959999907343471 22.85166163087785  4.960002890624999 22.850826813368318  C 4.960002890624999 22.462493603184672  5.272502812499999 22.14749369327109  5.658336035156249 22.14749369327109  L 12.647500781249999 22.14749369327109  C 13.034167353515624 22.14749369327109  13.347500595703124 22.46249360318467  13.347500566406248 22.850826813368318  C 13.347503540278053 22.851660313280842  13.347505027217506 22.85249381783586  13.347505027217506 22.85332732305365  C 13.347505027217506 23.240063111209583  13.034236301613895 23.553702562923952  12.647500781249999 23.554159962762416  Z M 4.26000310546875 6.679164767894183  L 4.2608364257812505 6.679998088200874  C 4.2608374178852095 6.8741310395717115  4.1041371284203985 7.0308313279442  3.9108375253070844 7.0308313279442  C 3.717862439532527 7.030372419859854  3.561668966475741 6.873807065457326  3.561668966475741 6.68083242747231  L 3.5616699609375004 3.866665578515102  C 3.5616699609375004 3.2833323989876355  4.030836503906251 2.8116658690723906  4.610002998046876 2.8116658690723906  L 7.018335673828126 2.811665869072391  C 7.211310934007094 2.812123137688983  7.367506219067411 2.9686889760150508  7.367506219067411 3.161664776613345  C 7.367506219067411 3.1622206631487124  7.367504894739099 3.162776548895702  7.36750224609375 3.1633324291210023  C 7.367504891618862 3.163887981828512  7.367506214387042 3.1644435400476603  7.367506214387042 3.1649990990540893  C 7.367506214387042 3.3582987008199554  7.210805924922232 3.5149989891924447  7.017506321808917 3.5149989891924447  L 4.610002998046875 3.514998989169615  C 4.416699426500758 3.5149989891471165  4.259999137035948 3.6716992775196053  4.259999137035948 3.864998879285472  C 4.259999137035948 3.865554448057536  4.260000459850631 3.86611001604229  4.26000310546875 3.866665578515102  L 4.26000310546875 6.679164767894183  Z M 8.454164635222336 3.5158323387956765  C 8.26086503210902 3.5158323387956765  8.10416474264421 3.3591320504231885  8.10416474264421 3.165832448657321  C 8.10416474264421 3.165276889650912  8.10416606541239 3.164721331432059  8.1041687109375 3.164165778724569  C 8.104166065319383 3.163610216251691  8.104164742504699 3.163054648267068  8.104164742504699 3.162499079494939  C 8.104164742504699 2.969199477729072  8.260865031969509 2.812499189356584  8.454164635082822 2.812499189356584  C 8.647472175061743 2.812499189356584  8.804172464526554 2.969199477729072  8.804172464526554 3.162499079494939  C 8.804172464526554 3.1630546482670026  8.804171141711869 3.1636102162517563  8.80416849609375 3.164165778724569  C 8.80417114161886 3.164721331431928  8.804172464387042 3.1652768896510426  8.804172464387042 3.165832448657321  C 8.804172464387042 3.3591320504231885  8.647472174922232 3.5158323387956765  8.454172571808918 3.5158323387956765  Z M 24.520830791015626 20.743327413996717  L 23.09166454101563 23.169160063102414  L 21.646664941406254 20.739994103473084  C 21.57957757244536 20.610748137967285  21.446448852002558 20.52926694330936  21.300831708984376 20.528327493620438  C 21.217498388671878 20.528327493620438  21.13416509765625 20.55332748368054  21.04999842773438 20.601660793890503  C 20.902957938979142 20.67397212922853  20.807553539169504 20.82124066852224  20.801665166015624 20.98499402364024  C 20.801875519045147 21.065189416224477  20.82723209996886 21.143299342534288  20.874165146484373 21.20832729356781  L 21.977498173828124 22.94832681268867  L 21.20083171875 22.94832681268867  C 20.97583177734375 22.94832681268867  20.837498496093747 23.084993452360997  20.837498496093747 23.317493362849664  C 20.837498496093747 23.549993273338334  20.974998457031248 23.68665991301066  21.20083171875 23.68665991301066  L 22.432498037109376 23.68665991301066  L 22.650831328125 24.03082650240843  L 22.650831328125 24.215826452290713  L 21.19333171875 24.215826452290713  C 20.962498447265624 24.215826452290713  20.83083181640625 24.344159742411758  20.83083181640625 24.57832632281069  C 20.83083181640625 24.810826262596233  20.96833177734375 24.947492872971683  21.19333171875 24.947492902268557  L 22.650831328125 24.947492902268557  L 22.650831328125 26.115825901936873  C 22.650831328125 26.379159161819985  22.824164619140625 26.536659102128336  23.092497861328127 26.536659102128336  C 23.355831123046872 26.536659102128336  23.53416439453125 26.378325812216417  23.534164423828127 26.115825901936873  L 23.534164423828127 24.947492902268557  L 24.98416400390625 24.947492902268557  C 25.204997285156253 24.947492902268557  25.34666390625 24.80915962198285  25.34666390625 24.57832632281069  C 25.34666390625 24.339159732680987  25.217497265625 24.215826422993835  24.98416400390625 24.215826452290713  L 23.534164423828127 24.215826452290713  L 23.534164423828127 24.036659832445896  L 23.746664355468752 23.68665991301066  L 24.99083068359375 23.68665991301066  C 25.213330634765622 23.68665991301066  25.35416390625 23.546659962814694  25.35416390625 23.309993362901945  C 25.35416390625 23.077493423116394  25.217497265625 22.948326812688666  24.99083068359375 22.948326812688666  L 24.206664228515624 22.948326812688666  L 25.306663916015623 21.203327283837034  C 25.350610440169554 21.136413659387657  25.374600879448835 21.05837247301658  25.375830556640626 20.97832737329609  C 25.375830556640626 20.824994093114938  25.28416391601563 20.692494113569815  25.138330634765627 20.603327463800756  C 25.061122259290233 20.550687606312014  24.97010244945535 20.521990279913286  24.87666404296875 20.520827493672712  C 24.72567666575216 20.521551986919928  24.588135602660095 20.60775729395584  24.521664140625 20.743327413996717  Z " fill-rule="nonzero" fill="#000000" stroke="none" transform="matrix(1 0 0 1 796 14 )" />
  </g>
</svg>