<?xml version="1.0" encoding="utf-8"?>
<svg version="1.1" xmlns:xlink="http://www.w3.org/1999/xlink" width="16px" height="11px" xmlns="http://www.w3.org/2000/svg">
  <g transform="matrix(1 0 0 1 0 -1 )">
    <path d="M 4.6 8.45  C 2.9499999999999993 7.6  1.8299999999999992 6.389999999999999  1.58 5.95  C 1.54 5.85  1.5299999999999998 5.559999999999999  1.5599999999999996 5.449999999999999  C 3.7399999999999993 2.5599999999999987  6.029999999999999 1.169999999999999  8.37 1.3200000000000003  C 9.21 1.37  9.989999999999998 1.6300000000000008  10.7 1.9900000000000002  L 11.37 1.2800000000000002  C 10.489999999999998 0.8000000000000007  9.5 0.4500000000000002  8.43 0.3900000000000006  C 5.75 0.20000000000000018  3.1799999999999997 1.7299999999999995  0.7800000000000002 4.91  C 0.5099999999999998 5.27  0.5700000000000003 6.09  0.75 6.41  C 1.0600000000000005 6.96  2.2200000000000006 8.219999999999999  3.9299999999999997 9.159999999999998  L 4.6 8.45  Z M 15.27 6.520000000000005  C 15.579999999999998 6.150000000000006  15.399999999999999 5.220000000000004  15.280000000000001 5  C 14.919999999999998 4.360000000000001  13.91 3.030000000000001  12.459999999999999 1.9600000000000006  L 11.799999999999999 2.660000000000002  C 13.209999999999999 3.6800000000000015  14.18 4.970000000000001  14.45 5.440000000000001  C 14.48 5.530000000000001  14.510000000000002 5.820000000000002  14.5 5.960000000000003  C 12.36 8.430000000000003  10 9.560000000000002  7.49 9.320000000000004  C 6.909999999999998 9.260000000000003  6.359999999999999 9.140000000000002  5.85 8.970000000000004  L 5.149999999999999 9.720000000000002  C 5.839999999999998 9.990000000000002  6.599999999999998 10.190000000000003  7.399999999999999 10.260000000000003  C 7.659999999999998 10.280000000000005  7.909999999999998 10.300000000000004  8.159999999999998 10.300000000000004  C 10.729999999999997 10.300000000000004  13.119999999999997 9.030000000000005  15.27 6.520000000000005  Z " fill-rule="nonzero" fill="#7f7f7f" stroke="none" transform="matrix(1 0 0 1 0 1 )" />
  </g>
</svg>