<?xml version="1.0" encoding="utf-8"?>
<svg version="1.1" xmlns:xlink="http://www.w3.org/1999/xlink" width="6px" height="6px" xmlns="http://www.w3.org/2000/svg">
  <g transform="matrix(1 0 0 1 -5 -3 )">
    <path d="M 3.0199999999999996 0.9300000000000006  C 1.6999999999999993 0.9400000000000004  0.6299999999999999 2.01  0.6299999999999999 3.3200000000000003  C 0.6299999999999999 3.880000000000001  0.8300000000000001 4.390000000000001  1.1500000000000004 4.800000000000001  L 1.8100000000000005 4.1  C 1.6600000000000001 3.869999999999999  1.58 3.6099999999999994  1.58 3.3200000000000003  C 1.58 2.530000000000001  2.219999999999999 1.8800000000000008  3.0199999999999996 1.8800000000000008  C 3.280000000000001 1.8800000000000008  3.5199999999999996 1.9500000000000002  3.7300000000000004 2.0700000000000003  L 4.390000000000001 1.370000000000001  C 4 1.1000000000000005  3.5299999999999994 0.9300000000000006  3.0199999999999996 0.9300000000000006  Z M 4.420000000000002 3.160000000000002  C 4.440000000000001 3.2200000000000024  4.449999999999999 3.2700000000000014  4.449999999999999 3.3200000000000003  C 4.449999999999999 4.110000000000001  3.8099999999999987 4.760000000000002  3.0100000000000016 4.760000000000002  C 2.9800000000000004 4.760000000000002  2.960000000000001 4.750000000000002  2.9300000000000015 4.750000000000002  L 2.1800000000000015 5.5500000000000025  C 2.4400000000000013 5.650000000000002  2.7200000000000024 5.700000000000001  3.0100000000000016 5.700000000000001  C 4.32 5.700000000000001  5.390000000000001 4.630000000000003  5.390000000000001 3.320000000000002  C 5.390000000000001 2.9800000000000004  5.320000000000002 2.650000000000002  5.1800000000000015 2.360000000000001  L 4.420000000000002 3.160000000000002  Z " fill-rule="nonzero" fill="#7f7f7f" stroke="none" transform="matrix(1 0 0 1 5 3 )" />
  </g>
</svg>