<?xml version="1.0" encoding="utf-8"?>
<svg version="1.1" xmlns:xlink="http://www.w3.org/1999/xlink" width="18px" height="10px" xmlns="http://www.w3.org/2000/svg">
  <g>
    <path d="M 17.333333339843747 5  C 15.416666679687498 8.33333333984375  12.583333339843747 10  9 10  C 5.416666660156249 10  2.5833333398437492 8.33333333984375  0.6666666601562496 5  C 2.5833333203124997 1.6666666601562508  5.416666660156249 0  9 0  C 12.583333339843751 0  15.416666660156253 1.6666666601562499  17.333333339843747 5  Z M 15.25 5  C 13.833333339843751 2.75  11.666666660156249 1.6666666601562508  9.166666660156249 1.6666666601562499  C 6.666666660156249 1.6666666601562499  4.166666660156249 2.749999999999999  2.749999999999999 5  C 4.166666660156249 7.25  6.666666660156249 8.33333333984375  9.166666660156249 8.33333333984375  C 11.666666660156249 8.33333333984375  13.833333320312502 7.249999999999998  15.25 5  Z M 11.5 5  C 11.5 6.416666660156249  10.416666660156249 7.5  8.999999999999998 7.5  C 7.5833333398437475 7.5  6.499999999999999 6.416666660156249  6.499999999999999 5  C 6.499999999999999 3.583333339843751  7.5833333398437475 2.5  8.999999999999998 2.5  C 10.416666660156249 2.5  11.5 3.583333339843751  11.5 5  Z M 8.166666660156249 4.999999999999998  C 8.166666660156249 5.499999999999998  8.499999999999998 5.833333339843749  8.999999999999998 5.833333339843749  C 9.499999999999998 5.833333339843749  9.83333333984375 5.499999999999998  9.83333333984375 4.999999999999998  C 9.83333333984375 4.5  9.499999999999998 4.166666660156249  8.999999999999998 4.166666660156249  C 8.5 4.166666660156249  8.166666660156249 4.499999999999998  8.166666660156249 4.999999999999998  Z " fill-rule="nonzero" fill="#555555" stroke="none" />
  </g>
</svg>