<?xml version="1.0" encoding="utf-8"?>
<svg version="1.1" xmlns:xlink="http://www.w3.org/1999/xlink" width="13px" height="14px" xmlns="http://www.w3.org/2000/svg">
  <g transform="matrix(1 0 0 1 -100 -109 )">
    <path d="M 12.368047599826387 7.260155574218749  C 12.118760315372576 7.260155574218749  11.916673042534722 7.456024777123129  11.916673042534722 7.697641683593749  C 11.916673042534722 8.406568707031248  11.773535636935764 9.094060992187499  11.491184495442711 9.74105444921875  C 10.940494412091674 10.999616902176852  9.906774353436436 12.001530189796542  8.60825753689236 12.535275962890625  C 7.940724605034724 12.808939376953122  7.231407167968751 12.947672554687498  6.499974524739582 12.947672554687498  C 5.7685418815104175 12.947672554687498  5.059224444444444 12.808939376953122  4.391691512586806 12.535275962890625  C 3.093174696042732 12.001530189796542  2.0594546373874936 10.999616902176852  1.5087645540364585 9.74105444921875  C 1.226413412543403 9.094060992187499  1.0832760069444445 8.406568707031248  1.0832760069444445 7.697641683593749  C 1.0832760069444445 6.988714660156249  1.226413412543403 6.301222374999998  1.5087645540364585 5.654228917968749  C 2.0594546373874936 4.395666465010646  3.093174696042732 3.3937531773909537  4.391691512586806 2.8600074042968737  C 5.059224444444444 2.586343990234374  5.768541881510416 2.447610812499999  6.499974524739582 2.447610812499999  C 6.779526165558281 2.4475401765884723  7.0586712360868695 2.4682619989802204  7.334951208767362 2.509593775390624  L 6.537427699652779 2.8108655449218745  C 6.36406107007784 2.876342050244328  6.249902263805334 3.0382068860342764  6.249902263805334 3.2185455039062494  C 6.249902263805334 3.4601908591600146  6.452013331074983 3.656083124359829  6.701329967447917 3.656083124359829  C 6.757403124413349 3.656083124359829  6.812985522587596 3.6459578195018914  6.865232235243054 3.6262254628906248  L 8.798326070963542 2.8961106289062504  C 8.971666004254807 2.8306387052372908  9.08580570157384 2.6687960264976374  9.08580570157384 2.4884831811917953  C 9.08580570157384 2.434133877633719  9.075357161945353 2.3802603844654167  9.054995032552084 2.3296209453124996  L 8.30165099934896 0.4560563027343749  C 8.234098328167564 0.28805048936605077  8.067117104302275 0.1774238222952276  7.881079777018231 0.1774238222952276  C 7.631789363036193 0.1774238222952276  7.429699553214448 0.3732954841224557  7.429699553214448 0.614915423828125  C 7.429699553214448 0.6692635660117505  7.440147515245516 0.7231359405165834  7.460508554687501 0.773774544921875  L 7.837078649088541 1.7103346093750003  C 7.3976758392639335 1.6187322983319394  6.9494773658696 1.5726243850167567  6.500025475260418 1.5727867695312499  C 5.647112021484374 1.5727867695312499  4.819473101128472 1.7347820820312498  4.040090192057291 2.0542783105468754  C 2.5251401812187924 2.676353773731757  1.3192296848584104 3.8451593317425887  0.6774057942708333 5.31349549609375  C 0.3478687293836806 6.068897392578124  0.1805778428819443 6.871070499999999  0.1805778428819443 7.697740462890625  C 0.1805778428819443 8.52441042578125  0.3477158637152776 9.326583533203124  0.6773548437499999 10.0819854296875  C 1.3191787343375758 11.550321594038657  2.525089230697962 12.719127152049495  4.040039241536458 13.341202615234373  C 4.819422150607639 13.66069884375  5.647061070963542 13.82269415625  6.499974524739582 13.82269415625  C 7.352887978515625 13.82269415625  8.180526898871527 13.66069884375  8.959909807942708 13.341202615234373  C 10.474901299040626 12.719152626632765  11.680852598709402 11.550342944704521  12.322696120876735 10.0819854296875  C 12.652335086805556 9.326336578125  12.819473107638888 8.52441042578125  12.819473107638888 7.697740462890625  C 12.81947311914517 7.4560247743347405  12.617385846307316 7.26015557143036  12.368098561853504 7.26015557143036  Z " fill-rule="nonzero" fill="#555555" stroke="none" transform="matrix(1 0 0 1 100 109 )" />
  </g>
</svg>