<?xml version="1.0" encoding="utf-8"?>
<svg version="1.1" xmlns:xlink="http://www.w3.org/1999/xlink" width="30px" height="30px" xmlns="http://www.w3.org/2000/svg">
  <g transform="matrix(1 0 0 1 -169 -438 )">
    <path d="M 29.0625 15  C 29.0625 22.76651785714286  22.76651785714286 29.0625  15 29.0625  C 7.233482142857143 29.0625  0.9375 22.76651785714286  0.9375 15  C 0.9375 7.233482142857143  7.233482142857143 0.9375  15 0.9375  C 22.76651785714286 0.9375  29.0625 7.233482142857143  29.0625 15  Z M 21.868181501116073 12.142361886160714  L 19.749452427455356 12.142361886160714  L 19.749452427455356 10.027336774553572  C 19.749452427455356 10.027336774553572  19.748856026785713 5.093062918526786  14.806766183035716 5.093062918526786  C 9.86480189732143 5.093062918526786  9.864205496651786 10.027336774553572  9.864205496651786 10.027336774553572  L 9.864205496651786 12.142361886160714  L 7.745476422991074 12.142361886160714  L 7.745476422991074 22  L 21.868181501116073 22  L 21.868181501116073 12.142361886160714  Z M 18.337520926339284 10.027368164062501  L 18.337520926339284 12.14176548549107  L 11.276136997767857 12.14176548549107  L 11.276136997767857 10.036533900669644  C 11.284015764508926 9.445971679687501  11.492096819196428 6.502702985491071  14.806766183035714 6.502702985491071  C 18.121561104910715 6.502702985491071  18.32964215959821 9.445971679687503  18.337520926339284 10.027368164062501  Z M 17.811934988839287 18.271037946428567  L 17.808356584821425 18.27223074776786  C 17.80113699776786 18.368690708705355  17.758729771205356 18.464052036830356  17.682453264508926 18.538131277901783  L 16.394635881696427 19.798325892857143  C 16.224002511160712 19.963058035714287  15.948025948660712 19.963058035714287  15.778585379464285 19.798325892857143  C 15.609144810267857 19.63359375  15.609144810267857 19.36650041852679  15.779809570312498 19.204153878348215  L 16.312363978794643 18.682899693080362  L 12.637782505580358 18.687608119419643  C 12.388424246651786 18.687608119419643  12.1875 18.49227120535715  12.1875 18.251074218750002  C 12.1875 18.00987723214286  12.389617047991072 17.814603097098214  12.637782505580358 17.814603097098214  L 17.339993722098214 17.813378906249998  C 17.355719866071425 17.812186104910715  17.371477399553573 17.812186104910715  17.387203543526788 17.813378906249998  C 17.49373953683036 17.81928013392857  17.59905133928572 17.861593191964282  17.681291852678573 17.94041224888393  C 17.762402343749997 18.019294084821432  17.80603376116072 18.121592494419644  17.811997767857143 18.225177873883933  C 17.813190569196433 18.240464564732143  17.811966378348217 18.2710693359375  17.811966378348217 18.2710693359375  Z M 12.188065011160715 15.946864536830358  L 12.191706194196428 15.945734514508928  C 12.198988560267859 15.848332868303574  12.241333007812502 15.753379603794642  12.317546735491073 15.679520089285713  L 13.60564662388393 14.420016043526786  C 13.775149972098214 14.255848911830359  14.051220703124999 14.255848911830359  14.220661272321427 14.420016043526786  C 14.390164620535714 14.584183175223217  14.390164620535714 14.851527622767858  14.220661272321427 15.015694754464286  L 13.68804408482143 15.536446707589286  L 17.362186104910712 15.53173828125  C 17.611575753348216 15.53173828125  17.81253138950893 15.727546037946432  17.81253138950893 15.967958286830358  C 17.81253138950893 16.20837053571429  17.61041434151786 16.404241071428576  17.362186104910712 16.404241071428576  L 12.660194614955358 16.405433872767862  C 12.64453125 16.406532505580362  12.628710937500001 16.406532505580362  12.613016183035716 16.405433872767862  C 12.506480189732144 16.400662667410717  12.401105608258932 16.358506556919643  12.318833705357145 16.278683035714288  C 12.237691824776789 16.200146484375004  12.194123186383932 16.096969168526787  12.188033621651787 15.993729073660717  C 12.186840820312502 15.97743791852679  12.188065011160717 15.94689592633929  12.188065011160717 15.946833147321431  Z " fill-rule="nonzero" fill="#000000" stroke="none" transform="matrix(1 0 0 1 169 438 )" />
  </g>
</svg>