<?xml version="1.0" encoding="utf-8"?>
<svg version="1.1" xmlns:xlink="http://www.w3.org/1999/xlink" width="10px" height="4px" xmlns="http://www.w3.org/2000/svg">
  <g transform="matrix(1 0 0 1 -315 -442 )">
    <path d="M 9.834765625 3.92333984375  L 8.3212890625 1.2995117187499998  C 8.067406026470906 0.8595511573268473  7.598050581918454 0.5885002093880072  7.090092028893579 0.5885002093880072  C 6.8403956867133715 0.5885002093880072  6.5951046192636404 0.654273126895978  6.37890625 0.7791992187499996  L 3.726367187500001 2.31171875  L 2.3122070312500007 3.1288085937499996  L 0.9370117187500018 3.92333984375  L 3.6141601562500014 3.92333984375  L 4.73974609375 3.27265625  L 7.048632812499999 1.9384765625  C 7.0608737577355285 1.9312226554782708  7.07483370202122 1.9273786128488783  7.089062499999997 1.9273437499999995  C 7.0964810101748235 1.9273890677303953  7.103863934361527 1.928373457621956  7.111035156249997 1.9302734374999995  C 7.132388217613485 1.9356310255344935  7.150542603984807 1.9496449378211267  7.1611328125 1.9689453124999998  L 8.28876953125 3.92333984375  L 9.834765625 3.92333984375  Z " fill-rule="nonzero" fill="#ffffff" stroke="none" transform="matrix(1 0 0 1 315 442 )" />
  </g>
</svg>