<?xml version="1.0" encoding="utf-8"?>
<svg version="1.1" xmlns:xlink="http://www.w3.org/1999/xlink" width="9px" height="7px" xmlns="http://www.w3.org/2000/svg">
  <g transform="matrix(1 0 0 1 -320 -451 )">
    <path d="M 8.814453125 5.720703125  C 8.814453125 6.280700445067687  8.360485601317688 6.734667968749999  7.800488281250001 6.734667968749999  L 2.9773437499999993 6.734667968749999  C 1.8678659092927319 6.734667968750028  0.9684566894459792 5.835258748903275  0.9684566894459792 4.725781250000029  C 0.9684566894459792 4.725390624977692  0.9684568033806578 4.724999999955877  0.9684570312500007 4.724609375  L 0.9684570312500007 2.6380859374999996  C 0.9684570312500007 1.528608438596752  1.8678662510967499 0.6291992187499993  2.9773437499999993 0.6291992187499993  L 7.800488281250001 0.6291992187499993  C 8.360485601317688 0.6291992187499993  8.814453125 1.0831667424323115  8.814453125 1.6431640625000004  L 8.814453125 5.720703125  Z M 2.979101562500002 1.970703125  C 2.6099081430389646 1.971348992918669  2.3108693144197368 2.270649906400843  2.310546875 2.6398437500000007  L 2.310546875 4.724609375  C 2.310546875 5.094489142025349  2.61039367047465 5.394335937499999  2.9802734374999993 5.394335937499999  C 2.5337890624999986 5.394335937499999  3.4267578125000036 5.394335937499999  2.9802734374999993 5.394335937499999  L 7.473535156250001 5.394335937499999  L 7.473535156250001 1.970703125  L 2.979101562500002 1.970703125  Z " fill-rule="nonzero" fill="#ffffff" stroke="none" transform="matrix(1 0 0 1 320 451 )" />
  </g>
</svg>