<?xml version="1.0" encoding="utf-8"?>
<svg version="1.1" xmlns:xlink="http://www.w3.org/1999/xlink" width="30px" height="30px" xmlns="http://www.w3.org/2000/svg">
  <g transform="matrix(1 0 0 1 -36 -634 )">
    <path d="M 15 0  C 6.7143749999999995 0  0 6.7171875  0 15  C 0 23.285625  6.7153125000000005 30  15 30  C 23.281875 30  30 23.2846875  30 15  C 30 6.718125000000001  23.283749999999998 0  15 0  Z M 10.3125 9.375  C 11.865 9.375  13.125 10.6340625  13.125 12.1865625  C 13.125 13.739062500000001  11.865 14.998125000000002  10.3125 14.998125000000002  C 8.76 14.998125000000002  7.5 13.74  7.5 12.1865625  C 7.5 10.6340625  8.7590625 9.375  10.3125 9.375  Z M 5.625 20.624062499999997  C 5.625 18.9375  5.8378125 18.5925  6.560625 17.862187499999997  C 7.3603125 17.0521875  8.878125 16.875  10.2375 16.875  C 11.4646875 16.875  13.239374999999999 17.081249999999997  14.0746875 17.8621875  C 14.998125 18.7275  14.9925 19.250625000000003  14.9925 20.6240625  L 5.625 20.624062499999997  Z M 22.499062499999997 16.875  L 22.499062499999997 18.75  L 16.873124999999998 18.75  L 16.873124999999998 16.875  L 22.499062499999997 16.875  Z M 24.374062499999997 13.123125  L 24.374062499999997 14.998125  L 16.875 14.998125  L 16.875 13.123125  L 24.374062499999997 13.123125  Z M 24.374062499999997 9.375  L 24.374062499999997 11.2490625  L 16.875 11.2490625  L 16.875 9.375  L 24.374062499999997 9.375  Z " fill-rule="nonzero" fill="#000000" stroke="none" transform="matrix(1 0 0 1 36 634 )" />
  </g>
</svg>