<?xml version="1.0" encoding="utf-8"?>
<svg version="1.1" xmlns:xlink="http://www.w3.org/1999/xlink" width="20px" height="19px" xmlns="http://www.w3.org/2000/svg">
  <g transform="matrix(1 0 0 1 -309 -445 )">
    <path d="M 17.066992187500002 18.41240234375  L 4.069140624999999 18.41240234375  C 1.924291011286396 18.41240234375  0.18554686394957898 16.673658196413182  0.18554686394957898 14.52880859375  L 0.185546875 4.806640624999998  C 0.185546875 2.6617910223368173  1.924291022336817 0.923046874999998  4.069140624999999 1  L 17.066992187500002 1  C 18.174689862502426 0.9230468749999998  19.07265625 1.8210132624975746  19 2.9287109375  L 19 16.4052734375  C 19.07265660661795 16.40576171866723  19.07265678492695 16.406249999952614  19.07265678492695 16.40673828125007  C 19.07265678492695 17.514435956252495  18.174690397429373 18.412402343750074  17.066992722426946 18.412402343750074  Z M 4.0708984375 2.26513671875  C 2.666104085184312 2.265136569757942  1.527111841724576 3.403604234176358  1.5264648437500004 4.808398437499999  L 1.5264648437500004 14.527050781249997  C 1.5264648437500004 15.932302652035283  2.665646566714713 17.071484374999997  4.0708984375 17  L 17.065234375 17  C 17.43333431812453 17.071484375  17.73173828125 16.773080411874528  17.731738281250003 16.40498046875  L 17.73173828125 2.9316406249999982  C 17.73173828125 2.563540681875471  17.43333431812453 2.2651367187499982  17.065234375000003 2.26513671875  L 4.0708984375 2.26513671875  Z " fill-rule="nonzero" fill="#efcf8f" stroke="none" transform="matrix(1 0 0 1 309 445 )" />
  </g>
</svg>