<?xml version="1.0" encoding="utf-8"?>
<svg version="1.1" xmlns:xlink="http://www.w3.org/1999/xlink" width="30px" height="30px" xmlns="http://www.w3.org/2000/svg">
  <g transform="matrix(1 0 0 1 -36 -506 )">
    <path d="M 30 15  C 30 6.719999999999999  23.28 0  15 0  C 6.72 0  0 6.72  0 15  C 0 23.28  6.72 30  15 30  C 23.28 30  30 23.28  30 15  Z M 23.22 16.35  L 23.25 16.35  C 23.25 19.23  20.88 21.599999999999998  18 21  L 7.29 21  C 6.989999999999999 21.599999999999998  6.75 21.36  6.75 21.06  L 6.75 13.65  C 6.75 10.77  9.12 8.4  12 9  L 22.68 9  C 22.98 8.4  23.22 8.64  23.22 8.940000000000001  L 23.22 16.35  Z " fill-rule="nonzero" fill="#000000" stroke="none" transform="matrix(1 0 0 1 36 506 )" />
  </g>
</svg>