<?xml version="1.0" encoding="utf-8"?>
<svg version="1.1" xmlns:xlink="http://www.w3.org/1999/xlink" width="6px" height="4px" xmlns="http://www.w3.org/2000/svg">
  <g transform="matrix(1 0 0 1 -313 -524 )">
    <path d="M 4.891527414634146 3.0435733463414607  C 4.846593795121953 3.073529092682925  4.786682273170731 3.0885069658536537  4.726770751219512 3.088506965853661  C 4.591969863414635 3.088506965853661  4.457168975609754 3.0136175707317108  4.397257482926829 2.8937945560975606  L 3.708275141463414 1.5757413951219519  L 3.0492485463414614 1.1413829560975586  L 0.9823015219512179 2.26472373658536  C 0.8025669853658499 2.3695688780487814  0.5778988585365834 2.294679482926824  0.473053717073169 2.1149449756097525  C 0.3682085756097546 1.935210439024388  0.4430979707317064 1.7105423121951162  0.6228324780487782 1.6056971414634091  L 2.88449191219512 0.37751124878048614  C 3.0043149268292666 0.31759972682926474  3.1540936878048758 0.31759972682926474  3.2739167024390223 0.39248912195121477  L 4.202545073170731 1.0065820682926798  C 4.262456595121948 1.0365378146341442  4.292412341463413 1.0964493365853585  4.322368087804877 1.1413829560975515  L 5.056284048780487 2.5343255121951174  C 5.146151317073173 2.714060048780482  5.086239795121951 2.9387281756097536  4.891527414634146 3.0435733463414607  Z " fill-rule="nonzero" fill="#ffffff" stroke="none" transform="matrix(1 0 0 1 313 524 )" />
  </g>
</svg>