<?xml version="1.0" encoding="utf-8"?>
<svg version="1.1" xmlns:xlink="http://www.w3.org/1999/xlink" width="14px" height="14px" xmlns="http://www.w3.org/2000/svg">
  <g transform="matrix(1 0 0 1 -310 -514 )">
    <path d="M 9.119713307317074 13.103484839024397  C 8.445708839024391 13.328152995121954  7.741748624390244 13.462953882926833  7.007832663414634 13.462953882926833  C 6.139115814634147 13.462953882926833  5.300354682926828 13.283219346341461  4.506527229268292 12.938728204878053  C 3.742655492682927 12.609214907317075  3.053673180487804 12.129922848780488  2.4845138536585356 11.530807775609759  C 2.274823570731705 11.306139619512201  2.274823570731705 10.946670575609758  2.499491726829268 10.73698029268293  C 2.7241598829268305 10.5272900097561  3.0836289268292667 10.5272900097561  3.2933191804878046 10.751958165853665  C 4.281859043902438 11.770453804878052  5.599912234146339 12.339613131707317  7.007832663414634 12.339613131707317  C 9.419270858536585 12.339613131707317  11.486217853658538 10.707024546341465  12.040399307317074 8.37047574634147  C 12.115288702439024 8.070918195121955  12.414846224390242 7.876205814634151  12.714403775609757 7.951095180487811  C 13.013961326829271 8.02598454634147  13.208673707317075 8.325542097560977  13.133784341463414 8.625099648780491  C 12.804271043902439 9.973108585365857  12.025421463414634 11.201294478048787  10.932036429268294 12.08498920000001  C 10.39283284878049 12.519347639024396  9.778739902439025 12.863838809756103  9.119713307317074 13.103484839024397  Z M 2.125044780487803 10.242710360975607  C 2.050155385365853 10.272666107317072  1.9602881463414619 10.2876439804878  1.8853987512195138 10.287643980487807  C 1.675708468292683 10.287643980487807  1.4809960878048791 10.167820965853657  1.3761509463414647 9.973108556097564  C 0.941792507317075 9.089413804878049  0.7171243512195122 8.145807560975612  0.7171243512195122 7.157267697560976  C 0.7171243512195122 6.303528721951221  0.8818809853658536 5.4797454926829285  1.2113943121951234 4.700895882926831  C 1.5259297365853666 3.952002048780489  1.9752660487804885 3.2779975804878045  2.5594032195121947 2.6938603804878056  C 3.1435404195121954 2.1097231804878067  3.8175448878048783 1.6603868682926848  4.56643872195122 1.3458514731707343  C 5.3303104585365855 1.0313160487804875  6.154093687804879 0.8515815121951213  7.007832663414634 0.8515815121951213  C 8.625443375609755 0.8515815121951213  10.153186819512197 1.4656744585365846  11.336439092682927 2.5740373658536573  C 12.504713492682924 3.6824002439024373  13.208673707317075 5.165210068292682  13.298540975609757 6.767842907317071  C 13.31351884878049 7.082378331707316  13.073872819512196 7.3519801073170745  12.774315268292685 7.366957980487806  C 12.459779843902442 7.381935853658538  12.190178068292685 7.142289824390245  12.175200195121953 6.842732302439025  C 12.01044356097561 4.1167587121951215  9.748784126829268 1.989900195121951  7.007832663414634 1.9899001658536584  C 4.162036058536586 1.9899001658536584  1.840465131707315 4.311471092682927  1.840465131707315 7.157267697560976  C 1.840465131707315 7.966073053658539  2.0201996682926833 8.744922663414634  2.379668712195121 9.478838624390242  C 2.5144696 9.763418273170728  2.409624458536584 10.092931570731707  2.125044780487803 10.242710360975607  Z " fill-rule="nonzero" fill="#ffffff" stroke="none" transform="matrix(1 0 0 1 310 514 )" />
  </g>
</svg>