<?xml version="1.0" encoding="utf-8"?>
<svg version="1.1" xmlns:xlink="http://www.w3.org/1999/xlink" width="18px" height="8px" xmlns="http://www.w3.org/2000/svg">
  <g transform="matrix(1 0 0 1 -308 -517 )">
    <path d="M 3.5409075804877954 7.3625333756097575  C 3.21139428292682 7.377511248780493  2.8818809853658447 7.392489121951229  2.567345590243903 7.392489121951222  C 2.1779208000000008 7.392489121951222  1.8484075024390254 7.377511248780486  1.5638278536585375 7.3325776000000005  C 0.8448897658536598 7.21275458536585  0.42550920000000136 6.9431528097561  0.3056861853658539 6.493816497560971  C 0.09599590243902423 5.6999890146341485  1.0096464000000003 5.055940321951219  1.7136066146341467 4.63655975609756  C 2.0880535317073186 4.411891599999999  2.5224119707317083 4.187223443902438  3.031659775609757 3.9625553170731695  C 3.316239424390245 3.827754429268291  3.6457527219512205 3.9625553170731695  3.78055363902439 4.2471349658536575  C 3.915354526829269 4.531714614634144  3.78055363902439 4.861227912195119  3.4959739609756095 4.996028829268292  C 3.031659775609757 5.205719112195119  2.6272571121951227 5.415409395121955  2.2827659414634134 5.625099648780484  C 1.8484075024390236 5.879723551219513  1.6237393463414618 6.074435960975606  1.5039163317073152 6.194258975609756  C 1.773518107317071 6.269148370731706  2.4325447024390225 6.359015609756099  3.8704208780487797 6.2242147219512205  C 5.398164321951217 6.074435960975613  7.300354682926828 5.699989043902441  9.262456565853656 5.175763336585369  C 11.209580575609753 4.651537658536588  13.051859414634144 4.0224668097560965  14.444801999999996 3.3784181170731724  C 15.762855160975608 2.7793030439024395  16.28708086829268 2.3749003512195124  16.481793248780484 2.1652100682926836  C 16.317036614634144 2.120276448780489  16.032456936585366 2.0753427999999996  15.523209131707315 2.060364926829269  C 15.148762214634147 2.060364926829269  14.714403775609753 2.0753428000000014  14.220133843902435 2.120276448780489  C 13.905598419512192 2.150232195121953  13.635996643902434 1.9255640390243922  13.60604086829268 1.6110286439024417  C 13.576085121951216 1.2964932195121985  13.80075327804878 1.0268914439024428  14.115288702439024 0.996935668292684  C 14.639514380487803 0.9520020487804892  15.118806468292682 0.922046273170734  15.523209131707315 0.9370241756097588  C 16.34699236097561 0.952002048780491  17.470333141463414 1.0418693170731732  17.68002339512195 1.8356968000000027  C 17.799846409756096 2.2850331121951264  17.57517825365853 2.7343694243902483  17.006018956097556 3.183705707317076  C 16.616594165853655 3.498241131707319  16.032456965853655 3.8577101756097587  15.283563102439018 4.217179219512198  C 13.785775404878045 4.936117307317078  11.748784156097553 5.6550553951219555  9.532058370731699 6.254170468292685  C 7.315332585365844 6.853285541463421  5.188474068292674 7.242710331707322  3.5409075804877954 7.3625333756097575  Z " fill-rule="nonzero" fill="#ffffff" stroke="none" transform="matrix(1 0 0 1 308 517 )" />
  </g>
</svg>