<?xml version="1.0" encoding="utf-8"?>
<svg version="1.1" xmlns:xlink="http://www.w3.org/1999/xlink" width="7px" height="6px" xmlns="http://www.w3.org/2000/svg">
  <g transform="matrix(1 0 0 1 -314 -515 )">
    <path d="M 3.786682273170731 5.33348446829268  C 3.726770751219512 5.393395990243901  3.6369035121951225 5.423351736585364  3.547036243902441 5.423351736585365  C 3.5021026243902487 5.423351736585365  3.47214684878049 5.423351736585365  3.4272132292682933 5.408373863414633  C 3.307390214634145 5.363440243902437  3.202545073170734 5.2735729756097545  3.172589326829268 5.1387720878048775  L 2.858053902439025 3.9255640390243887  L 1.360266204878048 2.7123560195121943  C 1.2404431902439033 2.60751087804878  1.1955095707317067 2.4427542439024386  1.2404431902439033 2.292975453658535  L 1.450133473170732 1.7238161268292664  L 0.851018400000001 0.9599444195121922  C 0.761151131707317 0.8550992780487778  0.7461732585365866 0.6903426439024365  0.8060847512195117 0.5705196292682899  C 0.8659962731707331 0.43571874146341116  0.9858192878048797 0.36082934634146113  1.1355980487804889 0.3458514731707307  L 4.41575309268293 0.22602845853658415  C 4.475664614634148 0.22602845853658415  4.535576107317077 0.24100633170731633  4.595487629268295 0.25598420487804674  L 6.5276337365853685 1.1696347024390228  C 6.692390370731712 1.2445240975609728  6.782257639024394 1.4242586048780463  6.737324019512197 1.6039931121951199  L 6.347899229268293 3.0568471902439  C 6.332921356097561 3.131736585365852  6.287987707317075 3.191648078048779  6.228076214634147 3.2515595999999967  L 3.786682273170731 5.33348446829268  Z M 2.2589388292682973 1.7687497756097557  L 2.064226419512197 2.2929754536585367  L 3.4571689756097577 3.4163162341463416  C 3.5170804975609777 3.4612498536585363  3.562014117073174 3.5361392487804864  3.5919698634146346 3.611028643902438  L 3.786682273170735 4.359922478048778  L 5.67389476097561 2.7423117658536587  L 5.943496536585368 1.708838253658536  L 4.370819473170734 0.9599444195121958  L 1.9294255317073201 1.0647895609756102  L 2.199027307317076 1.409280731707316  C 2.2739167024390277 1.5141258731707303  2.3038724487804902 1.648926760975609  2.2589388292682973 1.7687497756097557  Z " fill-rule="nonzero" fill="#ffffff" stroke="none" transform="matrix(1 0 0 1 314 515 )" />
  </g>
</svg>