<?xml version="1.0" encoding="utf-8"?>
<svg version="1.1" xmlns:xlink="http://www.w3.org/1999/xlink" width="7px" height="6px" xmlns="http://www.w3.org/2000/svg">
  <g transform="matrix(1 0 0 1 -314 -515 )">
    <path d="M 3.786682273170735 5.348462341463412  C 3.726770751219515 5.393395960975607  3.6369035121951256 5.423351736585362  3.547036243902441 5.423351736585365  C 3.5021026243902487 5.423351736585365  3.47214684878049 5.423351736585365  3.4272132292682933 5.408373863414633  C 3.307390214634145 5.363440243902437  3.202545073170734 5.2735729756097545  3.172589326829268 5.1387720878048775  L 2.858053902439025 3.9255640390243887  L 1.360266204878048 2.7123560195121943  C 1.2404431902439033 2.60751087804878  1.1955095707317067 2.4427542439024386  1.2404431902439033 2.292975453658535  L 1.450133473170732 1.7238161268292664  L 0.851018400000001 0.9599444195121922  C 0.7162175121951222 0.7951877853658509  0.7461732585365866 0.5555417560975577  0.9109298926829261 0.4357187121951185  C 1.0756865268292675 0.30091782439023973  1.3153325560975606 0.33087357073170587  1.4351555999999999 0.4956302341463399  L 2.1690715609756097 1.4242586048780463  C 2.2439609560975615 1.5291037463414607  2.273916702439024 1.6639046341463395  2.228983082926831 1.783727648780486  L 2.0342706731707327 2.307953326829267  L 3.4272132292682933 3.431294107317072  C 3.487124751219513 3.4762277268292667  3.5320583707317095 3.5511171219512185  3.5620141170731703 3.6260065170731686  L 3.7567265268292687 4.374900351219509  L 5.6439390146341495 2.7572896390243873  L 6.003408058536589 1.4242586048780446  C 6.063319580487807 1.229546195121948  6.2580319609756145 1.1097231804878014  6.467722243902443 1.1546568292682888  C 6.6624346536585435 1.2145683512195102  6.7822576682926865 1.4092807317073142  6.737324019512201 1.618971014634143  L 6.347899229268297 3.0718250634146305  C 6.332921356097565 3.1467144585365823  6.287987707317079 3.206625951219509  6.22807621463415 3.266537473170729  L 3.786682273170735 5.348462341463412  Z " fill-rule="nonzero" fill="#ffffff" stroke="none" transform="matrix(1 0 0 1 314 515 )" />
  </g>
</svg>