<?xml version="1.0" encoding="utf-8"?>
<svg version="1.1" xmlns:xlink="http://www.w3.org/1999/xlink" width="30px" height="29px" xmlns="http://www.w3.org/2000/svg">
  <g transform="matrix(1 0 0 1 -169 -635 )">
    <path d="M 28.595145089285715 14.49150390625  C 28.595145089285715 6.492431640625  22.208426339285715 0.00991210937500129  14.327566964285714 0.009912109374999999  C 6.4467075892857135 0.009912109374999999  0.05998883928571556 6.492431640625  0.05998883928571556 14.491503906249998  C 0.05998883928571556 22.490576171874995  6.450892857142858 28.973095703124997  14.327566964285714 28.973095703124997  C 22.204241071428573 28.973095703124997  28.595145089285715 22.486328125  28.595145089285715 14.49150390625  Z M 17.466517857142854 9.262158203125  C 17.194475446428573 8.990283203125  17.194475446428573 8.548486328125001  17.462332589285715 8.272363281250001  L 18.286830357142854 7.435498046875001  C 18.5546875 7.163623046874999  18.994140625 7.163623046874999  19.261997767857142 7.435498046875001  L 20.651506696428573 8.8416015625  C 20.919363839285715 9.1134765625  20.919363839285715 9.559521484375  20.651506696428573 9.831396484374999  L 19.82700892857143 10.66826171875  C 19.559151785714285 10.94013671875  19.119698660714285 10.94013671875  18.851841517857142 10.66826171875  L 17.466517857142854 9.262158203125  Z M 10.929129464285714 19.699609375  C 10.57756902184076 20.056501867933726  10.120270662557473 20.28634208188733  9.627511160714285 20.353808593750003  C 9.234095982142858 20.409033203124995  8.673270089285714 20.3623046875  8.296595982142858 20.31982421875  C 8.041294642857139 20.290087890625003  7.844587053571427 20.08193359375  7.823660714285713 19.822802734375003  C 7.7943638392857135 19.448974609375  7.7901785714285685 18.922216796874995  7.844587053571427 18.531396484375  C 7.919921874999999 18.047119140625  8.141741071428573 17.60107421875  8.484933035714285 17.252734375000003  L 15.08091517857143 10.562060546875  C 15.344587053571427 10.29443359375  15.779854910714285 10.29443359375  16.043526785714285 10.562060546875  L 17.508370535714285 12.048876953125  C 17.772042410714285 12.316503906249999  17.772042410714285 12.75830078125  17.508370535714285 13.025927734375  L 10.929129464285714 19.699609375  Z M 20.927734375 19.716601562500003  L 20.927734375 20.561962890624997  C 20.927734375 20.714892578125003  20.80636160714286 20.838085937499997  20.655691964285715 20.838085937499997  L 13.8671875 20.838085937499997  C 13.716517857142858 20.838085937499997  13.595145089285714 20.714892578125003  13.595145089285714 20.561962890624997  L 13.595145089285714 19.716601562500003  C 13.595145089285714 19.563671874999997  13.716517857142858 19.440478515625003  13.8671875 19.440478515625003  L 20.655691964285715 19.440478515625003  C 20.80636160714286 19.440478515625003  20.927734375 19.563671874999997  20.927734375 19.716601562500003  Z " fill-rule="nonzero" fill="#fc62b2" stroke="none" transform="matrix(1 0 0 1 169 635 )" />
  </g>
</svg>