<?xml version="1.0" encoding="utf-8"?>
<svg version="1.1" xmlns:xlink="http://www.w3.org/1999/xlink" width="9px" height="18px" xmlns="http://www.w3.org/2000/svg">
  <g transform="matrix(1 0 0 1 -179 -572 )">
    <path d="M 8.913043466796875 9  C 8.913043466796875 13.760869570312497  7.021739111328124 17.478260859375  4.673913037109376 17.478260859375  C 2.260869570312501 17.478260859375  0.4347826074218766 13.760869541015627  0.4347826074218766 9  C 0.4347826074218766 4.2391304589843735  2.260869570312501 0.5217391406249998  4.673913037109376 0.5217391406249998  C 7.086956503906251 0.5217391406249998  8.913043466796875 4.239130429687501  8.913043466796875 9  Z M 8.195652177734377 9  C 8.195652177734377 4.760869570312501  6.565217392578127 1.2391304296874992  4.673913037109376 1.2391304296874992  C 2.7826086816406246 1.2391304296874992  1.152173896484376 4.760869570312501  1.152173925781252 9  C 1.1521739550781263 13.2391304296875  2.7826087109375006 16.7608695703125  4.6739130371093776 16.7608695703125  C 6.565217363281256 16.7608695703125  8.195652177734377 13.2391304296875  8.195652177734377 9  Z " fill-rule="nonzero" fill="#ffffff" stroke="none" transform="matrix(1 0 0 1 179 572 )" />
  </g>
</svg>