<?xml version="1.0" encoding="utf-8"?>
<svg version="1.1" xmlns:xlink="http://www.w3.org/1999/xlink" width="30px" height="30px" xmlns="http://www.w3.org/2000/svg">
  <g transform="matrix(1 0 0 1 -36 -566 )">
    <path d="M 29.0625 15  C 29.0625 22.76625  22.76625 29.0625  15 29.0625  C 7.233750000000001 29.0625  0.9375 22.76625  0.9375 15  C 0.9375 7.233750000000001  7.233750000000001 0.9375  15 0.9375  C 22.76625 0.9375  29.0625 7.233750000000001  29.0625 15  Z M 13.269375 14.0625  L 13.269375 20.985937499999995  C 13.269375 21.86199918441909  13.979563315580904 22.572187499999995  14.855625 22.572187499999995  C 15.731686684419095 22.572187499999995  16.441875 21.86199918441909  16.441875 20.985937499999995  L 16.441875 14.0625  C 16.441875 13.186438315580904  15.731686684419095 12.47625  14.855625 12.47625  C 13.979563315580904 12.47625  13.269375 13.186438315580904  13.269375 14.0625  Z M 14.844375 7.4278125  C 14.413124999999999 7.4278125  14.0465625 7.5609375  13.74375 7.871250000000001  C 13.4203125 8.16  13.269375 8.536875000000002  13.269375 9.00375  C 13.269375 9.447187500000002  13.4203125 9.8240625  13.74375 10.135312500000001  C 14.0465625 10.445625000000001  14.413125 10.601250000000002  14.845312499999999 10.601250000000002  C 15.268816890186232 10.601893933045973  15.677081061476514 10.4432732632168  15.9890625 10.156875000000001  C 16.2909375 9.846562500000001  16.441875 9.469687500000001  16.441875 9.00375  C 16.441875 8.537812500000001  16.291875 8.16  15.9890625 7.871250000000001  C 15.6871875 7.561875000000001  15.298125 7.427812500000001  14.845312499999999 7.427812500000001  Z " fill-rule="nonzero" fill="#000000" stroke="none" transform="matrix(1 0 0 1 36 566 )" />
  </g>
</svg>