<?xml version="1.0" encoding="utf-8"?>
<svg version="1.1" xmlns:xlink="http://www.w3.org/1999/xlink" width="18px" height="18px" xmlns="http://www.w3.org/2000/svg">
  <g transform="matrix(1 0 0 1 -175 -572 )">
    <path d="M 17.478260859375 9  C 17.478260859375 13.695652177734374  13.695652177734374 17.478260859375  9 17.478260859375  C 4.304347822265626 17.478260859375  0.5217391406249998 13.695652177734374  0.5217391406249998 9  C 0.5217391406249998 4.304347822265626  4.304347822265626 0.5217391406249998  9 0.5217391406249998  C 13.695652177734374 0.5217391406249998  17.478260859375 4.304347822265626  17.478260859375 9  Z M 16.7608695703125 9  C 16.7608695703125 4.695652177734376  13.304347822265626 1.2391304296875  9 1.2391304296874992  C 4.695652177734376 1.2391304296874992  1.2391304296874992 4.695652177734376  1.2391304296874992 9  C 1.2391304296874992 13.304347822265626  4.695652177734376 16.7608695703125  9 16.7608695703125  C 13.304347822265626 16.7608695703125  16.7608695703125 13.304347822265626  16.7608695703125 9  Z " fill-rule="nonzero" fill="#ffffff" stroke="none" transform="matrix(1 0 0 1 175 572 )" />
  </g>
</svg>