<?xml version="1.0" encoding="utf-8"?>
<svg version="1.1" xmlns:xlink="http://www.w3.org/1999/xlink" width="18px" height="12px" xmlns="http://www.w3.org/2000/svg">
  <g transform="matrix(1 0 0 1 -175 -575 )">
    <path d="M 15.521739140625002 1.5  C 13.5 2.608695644531249  11.282608710937499 3.195652177734374  9 3.195652177734374  C 6.782608681640625 3.195652177734374  4.5 2.608695644531249  2.5434782519531254 1.5  C 2.34782607421875 1.4347826074218748  2.2826086816406246 1.1739130371093758  2.34782607421875 1.0434782519531254  C 2.478260859375 0.8478260742187498  2.673913037109374 0.7826086816406246  2.8695652148437496 0.8478260742187498  C 4.695652177734376 1.8913043261718734  6.84782607421875 2.413043466796873  9 2.413043466796873  C 11.152173925781248 2.413043466796873  13.304347822265626 1.8913043261718734  15.13043478515625 0.8478260742187498  C 15.326086962890624 0.7173912890624994  15.521739140625002 0.7826086816406246  15.652173925781252 0.9782608593750002  C 15.782608710937502 1.1739130371093758  15.717391318359375 1.3695652148437496  15.521739140625002 1.5  Z M 2.869565214843748 11.7391304296875  C 2.869565214843748 11.86956521484375  2.869565214843748 11.86956521484375  2.739130429687501 11.869565214843753  C 2.6086956445312506 11.869565214843753  2.478260859375 11.804347822265626  2.4130434667968768 11.673913037109376  C 2.2826086816406264 11.478260859375002  2.3478260742187516 11.282608681640625  2.543478251953127 11.152173925781248  C 4.500000000000002 10.108695673828123  6.717391289062501 9.521739140624998  8.934782607421877 9.521739140624998  C 11.152173925781252 9.521739140624998  13.36956521484375 10.04347828125  15.326086962890624 11.086956533203125  C 15.521739140625002 11.217391318359375  15.586956533203125 11.41304349609375  15.456521748046875 11.608695644531249  C 15.326086962890624 11.804347822265623  15.13043478515625 11.86956521484375  14.934782607421873 11.7391304296875  C 13.108695644531249 10.695652177734374  11.021739140624998 10.239130429687496  8.934782607421873 10.239130429687496  C 6.847826074218748 10.239130429687496  4.760869570312499 10.760869570312497  2.869565214843748 11.7391304296875  Z M 17.54347825195313 6.326086962890626  C 17.543478222656255 6.586956533203127  17.282608681640628 6.652173925781252  17.08695653320313 6.652173925781252  L 0.913043466796875 6.652173925781252  C 0.6521738964843751 6.652173925781252  0.5217391113281247 6.521739140625002  0.5217391406249998 6.326086962890626  C 0.5217391699218759 6.13043478515625  0.6521739257812502 5.934782607421877  0.913043466796875 6  L 17.152173925781252 6  C 17.34782610351563 5.934782607421877  17.543478281250003 6.065217392578125  17.54347825195313 6.326086962890626  Z " fill-rule="nonzero" fill="#ffffff" stroke="none" transform="matrix(1 0 0 1 175 575 )" />
  </g>
</svg>