<?xml version="1.0" encoding="utf-8"?>
<svg version="1.1" xmlns:xlink="http://www.w3.org/1999/xlink" width="30px" height="30px" xmlns="http://www.w3.org/2000/svg">
  <g transform="matrix(1 0 0 1 -301 -566 )">
    <path d="M 29.065638950892858 15.006277901785715  C 29.065638950892858 7.240513392857144  22.76890345982143 0.9437779017857157  15.003138950892858 0.9437779017857143  C 7.237374441964288 0.9437779017857143  0.9406389508928579 7.240513392857142  0.9406389508928579 15.006277901785715  C 0.9406389508928579 22.772042410714292  7.237374441964288 29.06877790178571  15.003138950892858 29.06877790178571  C 22.76890345982143 29.06877790178571  29.065638950892858 22.77204241071429  29.065638950892858 15.006277901785715  Z M 19.84967912946429 8.536900111607144  L 19.84967912946429 21.478794642857146  C 19.84967912946429 22.36711774553571  19.12144252232143 23.085937500000004  18.226841517857142 23.085937500000004  L 11.779436383928571 23.085937500000004  C 10.887974330357144 23.08907645089286  10.162876674107144 22.370256696428577  10.156598772321429 21.478794642857146  L 10.156598772321429 8.536900111607144  C 10.156598772321429 7.648577008928571  10.884835379464285 6.9297572544642865  11.779436383928571 6.9297572544642865  L 18.226841517857142 6.9297572544642865  C 19.12458147321429 6.9297572544642865  19.84967912946429 7.654854910714287  19.84967912946429 8.536900111607144  Z " fill-rule="nonzero" fill="#6389f6" stroke="none" transform="matrix(1 0 0 1 301 566 )" />
  </g>
</svg>