<svg class="icon" viewBox="0 0 1024 1024" version="1.1" xmlns="http://www.w3.org/2000/svg" p-id="12787" height="128" width="128"><path d="M0 512a512 512 0 1 0 1024 0C1024 229.2224 794.7776 0 512 0S0 229.2224 0 512z" fill="#FFF1DC" p-id="12788"></path><path d="M512.4096 445.0048c-47.7952 0-95.5904 0.128-143.3856-0.1792-6.2976-0.0512-13.2096-1.1008-18.688-3.9424-12.8-6.5792-16.1536-18.432-11.264-34.944 15.1808-51.7632 30.336-103.5008 45.4656-155.264 5.1712-17.6128 10.24-35.2256 15.5136-52.7872 4.8384-16.128 13.9776-22.8608 30.9504-22.8608 54.2976-0.0512 108.544-0.0512 162.8672 0 17.4592 0 26.24 6.6304 31.232 23.552 20.352 69.376 40.704 138.752 60.928 208.128 6.656 22.7328-5.3504 38.2464-29.3632 38.2976h-144.256zM311.7312 753.664c-48.6144 0-97.2288 0.0512-145.8944 0-15.8208 0-26.3936-7.424-29.2352-21.4528a34.048 34.048 0 0 1 1.1008-15.8208c20.2752-69.9392 40.7552-139.8528 61.3376-209.664 4.6592-15.8464 14.3616-23.04 30.976-23.04 54.0416-0.0512 108.0576-0.0512 162.0736 0 16.9216 0 26.24 6.7328 31.0016 22.912 20.8896 70.0416 41.6512 140.1344 62.2848 210.2528 6.0928 20.8128-6.0672 36.7616-27.8528 36.8128-48.5632 0.128-97.1776 0-145.792 0z" fill="#FCA315" p-id="12789"></path><path d="M712.7296 753.664h-142.592c-25.7536 0-37.1456-15.104-30.0032-39.6544 20.0704-68.608 40.192-137.1648 60.2624-205.7216 5.2736-18.048 14.1312-24.6016 32.9472-24.6016h158.8224c19.2 0 27.9552 6.5536 33.4336 25.1136 20.224 68.864 40.4224 137.7024 60.5184 206.5408 6.7072 22.912-5.1712 38.3232-29.184 38.3232h-144.2048z" fill="#FF8E12" p-id="12790"></path><path d="M825.6 508.8c-5.4784-18.56-14.2592-25.1136-33.4336-25.1136H633.344c-18.816 0-27.648 6.5536-32.9472 24.576-20.1216 68.5824-40.192 137.1904-60.2624 205.7472-7.1936 24.5504 4.2496 39.68 30.0032 39.68h170.8544a509.4656 509.4656 0 0 0 88.2688-232.448l-3.6608-12.4416z" fill="#FCA315" p-id="12791"></path><path d="M625.1008 198.528c-4.992-16.9984-13.7216-23.552-31.232-23.552-54.2976-0.0768-108.544-0.0768-162.8672 0-16.9728 0-26.112 6.7328-30.9504 22.8352-5.2736 17.5616-10.3424 35.2-15.5136 52.8128-15.1808 51.7376-30.3616 103.5008-45.4656 155.264-4.8384 16.512-1.4592 28.416 11.264 34.944 5.4784 2.7904 12.3904 3.8912 18.688 3.9424 47.7952 0.3072 95.5904 0.1792 143.36 0.1792 48.128 0 96.2048 0.0512 144.2304 0 3.2 0 6.2208-0.2816 8.96-0.8704 6.0928-18.0224 11.1872-36.352 15.232-54.9632-18.4832-63.488-37.12-127.0528-55.7056-190.592z m-202.0096 307.9936c-4.8384-16.1024-14.08-22.8352-30.976-22.8864-54.016-0.0768-108.0576-0.0768-162.0736 0-16.64 0-26.368 7.1936-30.976 23.0144-20.5568 69.8368-41.088 139.7248-61.3632 209.664a34.048 34.048 0 0 0-1.1008 15.8464c2.816 13.952 13.4144 21.4016 29.2352 21.4528 48.64 0.0512 97.2288 0 145.92 0h61.952a511.7952 511.7952 0 0 0 105.3696-58.2144c-18.5344-62.976-37.1968-125.9008-55.9872-188.8768z" fill="#FCB138" p-id="12792"></path><path d="M650.2656 483.6864h-16.896c-18.8416 0-27.6992 6.5536-32.9728 24.576-10.1376 34.5088-20.224 68.992-30.3104 103.5264a512.9728 512.9728 0 0 0 80.1792-128.1024z" fill="#FCA315" p-id="12793"></path><path d="M558.2336 174.976c-42.3936 0-84.8384-0.0768-127.232 0-16.9728 0-26.112 6.7328-30.9504 22.8352-5.2736 17.5616-10.3424 35.2-15.5136 52.8128-15.1808 51.7376-30.3616 103.5008-45.4656 155.264-4.8384 16.512-1.4592 28.416 11.264 34.944 5.4784 2.7904 12.3904 3.8912 18.688 3.9424 19.8144 0.128 39.6544 0.1792 59.52 0.1792a510.336 510.336 0 0 0 129.6896-269.9776z m-169.3952 308.7104c-52.9152-0.0512-105.8816-0.0512-158.7968 0-16.64 0-26.368 7.1936-30.976 23.04-8.7552 29.6448-17.4592 59.2896-26.112 89.0112a511.3856 511.3856 0 0 0 215.8848-112.0512z" fill="#FFC65E" p-id="12794"></path></svg>