<?xml version="1.0" encoding="utf-8"?>
<svg version="1.1" xmlns:xlink="http://www.w3.org/1999/xlink" width="30px" height="27px" xmlns="http://www.w3.org/2000/svg">
  <g transform="matrix(1 0 0 1 -53 -763 )">
    <path d="M 29.53125 14.068421052631578  C 30.187500000000004 13.452631578947367  30.140625 12.410526315789472  29.4375 11.794736842105262  L 16.125 0.47368421052631576  C 16.125 0.47368421052631576  16.078125 0.47368421052631576  16.078125 0.4263157894736844  L 16.031249999999996 0.378947368421053  L 15.984374999999996 0.3315789473684216  C 15.374999999999998 -0.04736842105263162  14.53125 0  13.96875 0.47368421052631576  L 0.6093750000000003 11.794736842105262  C -0.09374999999999967 12.363157894736842  -0.14062499999999972 13.405263157894735  0.46875000000000033 14.068421052631578  C 1.0781250000000004 14.731578947368419  2.1562500000000004 14.826315789473682  2.8125000000000004 14.210526315789469  L 3.9375 13.215789473684207  L 3.9375 22.736842105263158  C 3.9375 24.963157894736845  5.8125 26.810526315789474  8.109375 26.810526315789474  L 10.59375 26.810526315789474  C 11.53125 26.810526315789474  12.281250000000002 26.1  12.281250000000002 25.2  L 12.281250000000002 17.526315789473685  C 12.281250000000002 17.052631578947366  12.656250000000002 16.721052631578946  13.125000000000002 16.721052631578946  L 16.875 16.721052631578946  C 17.34375 16.721052631578946  17.71875 17.099999999999998  17.71875 17.526315789473685  L 17.71875 25.010526315789473  C 17.71875 25.105263157894736  17.71875 25.24736842105263  17.765625 25.342105263157897  L 17.8125 25.53157894736842  C 17.953125 26.289473684210527  18.65625 26.810526315789474  19.453125 26.810526315789474  L 21.890625 26.810526315789474  C 24.1875 26.810526315789474  26.0625 24.963157894736845  26.0625 22.736842105263158  L 26.0625 13.26315789473684  L 27.1875 14.257894736842104  C 27.515625 14.542105263157895  27.890625 14.636842105263158  28.265625 14.636842105263158  C 28.734375 14.636842105263158  29.203125 14.447368421052632  29.53125 14.068421052631578  Z " fill-rule="nonzero" fill="#d6af66" stroke="none" transform="matrix(1 0 0 1 53 763 )" />
  </g>
</svg>