<?xml version="1.0" encoding="utf-8"?>
<svg version="1.1" xmlns:xlink="http://www.w3.org/1999/xlink" width="31px" height="19px" xmlns="http://www.w3.org/2000/svg">
  <g transform="matrix(1 0 0 1 -136 -771 )">
    <path d="M 29.447345252403846 18.37527526855468  L 29.447345252403846 18  L 1.6194076772836539 18  C 0.8853350360576919 18.37524047851563  0.28469839242788486 17.777060546875003  0.28469839242788486 17.0459130859375  L 0.28469839242788486 12.792239379882808  C 0.28469839242788486 12.393441162109376  0.48492225060096183 11.994677734375001  0.7518641075721154 11.795261230468748  L 9.827607797475963 4.218338623046874  C 10.294773512620193 3.819540405273435  10.962128155048076 3.819540405273435  11.429258939302885 4.151854858398437  L 17.702217923677885 8.538530883789058  L 28.579801682692306 0.695708007812498  C 28.980179537259616 0.4298425292968727  29.514063251201925 0.3633587646484353  29.981228966346155 0.5627752685546843  C 30.448324819711534 0.7621569824218721  30.715266676682692 1.2274041748046831  30.715266676682692 1.7591351318359336  L 30.715266676682692 17.112431640624994  C 30.781984675480764 17.777095336914055  30.18141789362981 18.37527526855468  29.447345252403846 18.37527526855468  Z M 2.95408203125 15.716655273437501  L 28 15.716655273437501  L 28 4.284752807617187  L 18.5697265625 11.130597534179687  C 18.102560847355768 11.46291198730469  17.501959134615387 11.46291198730469  17.03486328125 11.130597534179687  L 10.76186936598558 6.810370483398436  L 2.9540471003605804 13.390384521484373  L 2.9540471003605804 15.716655273437498  Z " fill-rule="nonzero" fill="#7f7f7f" stroke="none" transform="matrix(1 0 0 1 136 771 )" />
  </g>
</svg>