<?xml version="1.0" encoding="utf-8"?>
<svg version="1.1" xmlns:xlink="http://www.w3.org/1999/xlink" width="30px" height="14px" xmlns="http://www.w3.org/2000/svg">
  <g transform="matrix(1 0 0 1 -136 -763 )">
    <path d="M 1.8313359375000002 13.551619466145832  C 1.5626718750000006 13.551619466145832  1.226859375 13.421018880208333  1.0925273437499998 13.225135091145834  C 0.75671484375 12.833333333333332  0.8238632812500003 12.180364583333333  1.226859375 11.853846028645833  L 10.495523437500001 4.279217122395833  C 10.831335937499999 4.018050130208334  11.3686640625 3.9527327473958334  11.771624999999998 4.213933919270832  L 17.9507578125 8.654217122395835  L 27.6223828125 1.3407893880208333  C 28.09252734375 1.014305013020834  28.69700390625 1.079588216145833  29.032851562500003 1.5367073567708331  C 29.36869921875 1.9938264973958326  29.30148046875 2.581477864583334  28.831335937500004 2.9079622395833327  L 18.4880859375 10.678474934895833  C 18.1522734375 10.939676106770834  17.614945312499998 10.939676106770834  17.279132812499995 10.678474934895833  L 11.167218749999996 6.238191731770831  L 2.435847656249997 13.355735677083333  C 2.3015507812499973 13.486302083333335  2.032886718749997 13.551585286458334  1.8313710937499967 13.551585286458334  Z " fill-rule="nonzero" fill="#7f7f7f" stroke="none" transform="matrix(1 0 0 1 136 763 )" />
  </g>
</svg>