<?xml version="1.0" encoding="utf-8"?>
<svg version="1.1" xmlns:xlink="http://www.w3.org/1999/xlink" width="7px" height="6px" xmlns="http://www.w3.org/2000/svg">
  <g transform="matrix(1 0 0 1 -158 -763 )">
    <path d="M 5.305957031249999 4.6753613281250015  C 5.25 5.067177734375001  4.858212890624998 5.347021484375  4.466425781249999 5.347021484375  L 4.29849609375 5.347021484375  C 3.850751953125002 5.235078124999999  3.5709082031250006 4.787304687500001  3.6268652343750034 4.339560546875001  L 4.074638671875004 2.156708984375002  L 1.947773437500004 2.4925390625000015  C 1.5000000000000036 2.5484960937500016  1.0522265625000031 2.212695312500002  0.9962695312500037 1.7649218750000024  C 0.9403125000000045 1.3171777343750026  1.2761132812500051 0.8694042968750022  1.7238867187500055 0.813447265625002  L 5.082099609375003 0.30968750000000167  C 5.3619433593750045 0.2537304687500024  5.641787109375006 0.36564453125000185  5.809687500000006 0.5895605468750018  C 5.977587890625003 0.8134765625000018  6.089560546875006 1.0373046875000016  6.0335742187500045 1.3171777343750017  L 5.305957031249999 4.6753613281250015  Z " fill-rule="nonzero" fill="#7f7f7f" stroke="none" transform="matrix(1 0 0 1 158 763 )" />
  </g>
</svg>