<?xml version="1.0" encoding="utf-8"?>
<svg version="1.1" xmlns:xlink="http://www.w3.org/1999/xlink" width="23px" height="27px" xmlns="http://www.w3.org/2000/svg">
  <g transform="matrix(1 0 0 1 -220 -763 )">
    <path d="M 20.472455766601563 0  L 9.224040079627404 0  L 9.224040079627404 8.762365872070315  C 9.22404616992837 8.763831264287454  9.22404921508906 8.7652966679667  9.22404921508906 8.76676207328373  C 9.22404921508906 9.3409731948471  8.766516224139393 9.806463281291546  8.202120677303604 9.806463281291546  L 0.5250444215745194 9.806463281250002  L 0.5250444215745194 24.856852693359375  C 0.5250444215745194 26.040075613167925  1.4678396777622935 26.99926730859375  2.6308365647536056 27  L 20.473175933368392 27  C 20.474617766152154 26.999270327969363  20.47605960160893 26.999271837658373  20.477501437446996 26.999271837658373  C 21.638111873075854 26.999271837658373  22.578972528192192 26.04204838854001  22.578972528192192 24.861253423595873  C 22.578972528192192 24.859786512351615  22.578971044309835 24.858319601496202  22.57896807654748 24.856852693359375  L 22.57896807654748 2.143154636718749  C 22.578972114806724 2.1414434981328463  22.57897413393852 2.1397323552309406  22.57897413393852 2.1380212117127466  C 22.57897413393852 0.9572262467686092  21.638113478822184 0  20.47750304319333 0  C 20.476060672104996 0  20.474618301399012 0  20.473175933368392 0  Z M 15.967040018404449 17.877153093750003  L 15.984324228140025 20.08624339160156  C 15.984325183258928 20.239532526928866  15.862767791815468 20.363203959962643  15.71281915035628 20.363203959962643  L 6.894273454402043 20.363203959960938  C 6.744207869974318 20.363204494212994  6.622444249021259 20.239650969435342  6.622047254732573 20.086976083007812  L 6.622047254732573 17.877153093750003  C 6.622047254732573 17.724191969173464  6.743927075820202 17.60019249902344  6.894273454402043 17.60019249902344  L 15.694813818734973 17.60019249902344  C 15.845160197316822 17.60019249902344  15.967040018404454 17.724191969173464  15.967040018404454 17.87715306738281  Z " fill-rule="nonzero" fill="#7f7f7f" stroke="none" transform="matrix(1 0 0 1 220 763 )" />
  </g>
</svg>