<?xml version="1.0" encoding="utf-8"?>
<svg version="1.1" xmlns:xlink="http://www.w3.org/1999/xlink" width="25px" height="22px" xmlns="http://www.w3.org/2000/svg">
  <g transform="matrix(1 0 0 1 -296 -768 )">
    <path d="M 24.94915254237288 2.3153398058252437  L 24.949152542372882 5.596116504854369  L 20.610169491525422 5.596116504854369  C 19.41199240714675 5.596116504854369  18.440677966101696 6.575352345224456  18.440677966101696 7.783300970873786  L 18.440677966101696 14.344854368932038  C 18.440677966101696 15.55280299458137  19.41199240714675 16.532038834951457  20.610169491525422 16.532038834951454  L 24.949152542372882 16.532038834951454  L 24.949152542372882 19.812815533980583  C 24.949152542372882 21.020764159629916  23.977838101327826 21.999999999999996  22.779661016949156 22  L 2.169491525423729 22  C 0.9713144410450627 21.999999999999996  0 21.020764159629916  0 19.812815533980583  L 0 2.3153398058252437  C 0 1.107391180175912  0.9713144410450583 0.12815533980582555  2.169491525423729 0.12815533980582555  L 22.779661016949152 0.12815533980582555  C 23.977838101327823 0.12815533980582555  24.949152542372882 1.107391180175912  24.949152542372882 2.3153398058252437  Z " fill-rule="nonzero" fill="#7f7f7f" stroke="none" transform="matrix(1 0 0 1 296 768 )" />
  </g>
</svg>