<?xml version="1.0" encoding="utf-8"?>
<svg version="1.1" xmlns:xlink="http://www.w3.org/1999/xlink" width="8px" height="9px" xmlns="http://www.w3.org/2000/svg">
  <g transform="matrix(1 0 0 1 -315 -775 )">
    <path d="M 0.0355555555555548 1.165714285714285  C 0.0355555555555548 0.559779017328502  0.5449560179702991 0.06857142857142863  1.1733333333333336 0.06857142857142863  L 6.862222222222221 0.06857142857142863  C 7.4905995375852585 0.06857142857142863  8 0.559779017328502  8 1.165714285714285  L 8 7.748571428571428  C 8 8.354506696957214  7.4905995375852585 8.845714285714285  6.862222222222221 8.845714285714285  L 1.1733333333333336 8.845714285714285  C 0.5449560179702991 8.845714285714285  0.0355555555555548 8.354506696957214  0.0355555555555548 7.748571428571428  L 0.0355555555555548 1.165714285714285  Z M 3.4488889368426374 5.554285714285715  C 4.077266252205671 5.554285714285715  4.586666714620413 5.063078125528643  4.586666714620413 4.457142857142856  C 4.586666714620413 3.8512075887570734  4.077266252205671 3.3600000000000017  3.4488889368426374 3.3600000000000017  C 2.8205116214795996 3.3600000000000017  2.3111111590648585 3.8512075887570734  2.3111111590648585 4.457142857142856  C 2.3111111590648585 5.063078125528643  2.8205116214795996 5.554285714285715  3.4488889368426374 5.554285714285715  Z " fill-rule="nonzero" fill="#7f7f7f" stroke="none" transform="matrix(1 0 0 1 315 775 )" />
  </g>
</svg>