<?xml version="1.0" encoding="utf-8"?>
<svg version="1.1" xmlns:xlink="http://www.w3.org/1999/xlink" width="29px" height="33px" xmlns="http://www.w3.org/2000/svg">
  <g transform="matrix(1 0 0 1 -332 -11 )">
    <path d="M 13.998828125000003 2.34765625  L 13.777734375000001 2.349609375  C 8.176562500000001 2.4679687500000007  3.671875 7.045703124999999  3.671875 12.674609375  L 3.671875 20.66796875  L 0.5562499999999986 24.821875000000002  C -0.08164062500000036 25.67265625  0.09062499999999929 26.879296875  0.94140625 27.517578125  C 1.2746182051696415 27.767557527555145  1.6799271664725381 27.902706203863787  2.0964843749999993 28  L 25.90390625 28  C 26.319531249999997 27.902734375  26.72421875 27.76796875  27.05703125 27.519140625  L 27.155078125000003 27.43984375  C 27.92578125 26.78046875  28.052734374999996 25.636328125000002  27.445703125 24.82421875  L 24.325781250000002 20.652734375  L 24.325781250000002 12.674609375  C 24.325781250000002 6.971093750000001  19.701953125000003 2.34765625  13.998828125000003 2.34765625  Z M 6.122265624999999 12.674609375  C 6.122265624999999 8.324609375  9.648828125000001 4.798046875000001  13.998828125000003 4.798046875000001  C 18.348828125 4.798046875000001  21.875390625 8.324609375  21.875390625 12.674609375  L 21.875390625 21.076171875  L 21.88046875 21.186718750000004  C 21.904296875 21.443750000000005  22.0078125 21.687500000000007  22.17890625 21.882812500000007  L 22.230078125 21.941015625000006  L 24.85546875 25  L 3.1460937499999986 25  L 5.87734375 21.811718750000004  C 6.036352238781875 21.599608833985698  6.122290985157161 21.341655531468493  6.122265624999999 21.0765625  L 6.122265624999999 12.674609375  Z M 16.608203125 28.777734375  L 11.707421875000001 28.777734375  C 11.707421875000001 30.13125  12.8046875 31.228125  14.157812499999999 31.228125  C 15.511328124999999 31.228125  16.608203125 30.130859375  16.608203125 28.777734375  Z M 12.407421875000004 2.5226562500000007  L 15.908203125000002 2.5226562500000007  C 15.908593750000001 1.5558593750000007  15.125390625000003 0.7718750000000014  14.158593750000001 0.7714843750000009  C 13.191796875000001 0.7710937500000004  12.407812500000002 1.5542968750000012  12.407421875000004 2.5210937500000012  L 12.407421875000004 2.5226562500000007  Z " fill-rule="nonzero" fill="#797979" stroke="none" transform="matrix(1 0 0 1 332 11 )" />
  </g>
</svg>