<?xml version="1.0" encoding="utf-8"?>
<svg version="1.1" xmlns:xlink="http://www.w3.org/1999/xlink" width="40px" height="40px" xmlns="http://www.w3.org/2000/svg">
  <g transform="matrix(1 0 0 1 -27 -68 )">
    <path d="M 47 68  C 58.2 68  67 76.8  67 88  C 67 99.2  58.2 108  47 108  C 35.8 108  27 99.2  27 88  C 27 76.8  35.8 68  47 68  Z " fill-rule="nonzero" fill="#ffffff" stroke="none" />
    <path d="M 47 68.5  C 57.92 68.5  66.5 77.08  66.5 88  C 66.5 98.92  57.92 107.5  47 107.5  C 36.08 107.5  27.5 98.92  27.5 88  C 27.5 77.08  36.08 68.5  47 68.5  Z " stroke-width="1" stroke="#797979" fill="none" />
  </g>
</svg>