<?xml version="1.0" encoding="utf-8"?>
<svg version="1.1" xmlns:xlink="http://www.w3.org/1999/xlink" width="24px" height="24px" xmlns="http://www.w3.org/2000/svg">
  <g transform="matrix(1 0 0 1 -330 -48 )">
    <path d="M 23.242812363281253 11.999970029296875  C 23.242812363281253 5.79078984375  18.20922515625 0.7574724316406245  11.999715205078125 0.7574724316406245  C 5.790774873046875 0.7574724316406245  0.7571576660156243 5.790789843749998  0.7571576660156243 11.999970029296874  C 0.7571576660156243 18.20921015625  5.790774873046875 23.24252756835937  11.999715205078125 23.24252756835937  C 18.20922515625 23.242527568359375  23.242812363281253 18.209210156250002  23.242812363281253 11.999970029296875  Z M 22.059424716796876 12.000299794921874  C 22.059424716796876 17.55595306640625  17.555668271484375 22.059109921875  11.999715205078125 22.059109921875  C 6.444301787109374 22.059109921875  1.9411749023437501 17.55595306640625  1.9411749023437501 12.000299794921874  C 1.9411749023437501 6.444316757812498  6.444331757812501 1.9408900781249994  11.999715205078125 1.9408900781249994  C 17.555668271484375 1.9408900781249994  22.059424716796876 6.444316757812498  22.059424716796876 12.000299794921874  Z M 16.4878522265625 8.042563125000001  L 10.6284748828125 13.901970468750001  L 7.593062900390626 10.866528486328125  L 6.509597490234375 11.950593486328124  L 10.59729603515625 16.038831650390627  L 10.6285048828125 16.007622802734375  L 10.65971373046875 16.038831650390627  L 17.57185728515625 9.126628125  L 16.4878522265625 8.042563125000001  Z " fill-rule="nonzero" fill="#02a7f0" stroke="none" transform="matrix(1 0 0 1 330 48 )" />
  </g>
</svg>