<?xml version="1.0" encoding="utf-8"?>
<svg version="1.1" xmlns:xlink="http://www.w3.org/1999/xlink" width="20px" height="17px" xmlns="http://www.w3.org/2000/svg">
  <g transform="matrix(1 0 0 1 -771 -12 )">
    <path d="M 17.346796636284722 1.3153445416666636  C 17.542175303819445 1.0916401914062503  17.583014279513886 0.7816796783854165  17.451014887152777 0.5193548697916665  C 17.31957068142361 0.25700741666666627  17.0390275390625 0.09006726171875001  16.73010366753472 0  L 1.1003450737847225 0  C 0.7887119140625003 0.09006726171875001  0.5054595269097225 0.26060895963541636  0.3755920138888892 0.5271242682291668  C 0.24563567708333345 0.7930959309895835  0.2921374782986113 1.1061370299479165  0.49539967447916666 1.3282557760416664  L 6.048701193576389 7.400188342447915  L 6.048701193576389 14.247543170572916  C 6.048701193576389 14.531930348958332  6.220051692708333 14.792125951822912  6.4911789713541665 14.918882666666665  L 10.59526306423611 16.832102842447917  C 10.707120551215281 16.884585915364582  10.829015690104168 16.90991009375  10.949844878472224 16.90991009375  C 11.091815299479169 16.90991009375  11.2339189453125 16.87432488802083  11.360566406250001 16.80372076692708  C 11.5931642578125 16.672116661458332  11.738776649305557 16.43840046223958  11.747059917534724 16.183097539062498  L 12.028247048611112 7.400482809895831  L 17.346796636284722 1.3153445416666636  Z M 10.417694574652776 7.871992463541666  L 10.190404231770833 14.969644246093752  L 7.642998046874999 13.7821267109375  L 7.642998046874999 7.871992463541666  L 10.417694574652776 7.871992463541666  Z M 15.042669965277778 1.5894027148437502  L 10.84145171440972 6.3968259414062505  C 10.798836154513891 6.3901891015625  10.7598181640625 6.372679654947918  10.715381640624999 6.372679654947918  L 7.211801519097222 6.372679654947918  L 2.8372119357638885 1.5894027148437502  L 15.042669965277778 1.5894027148437502  Z M 13.764203428819439 10.088604246093754  L 13.764203428819444 8.765813106770834  L 19.69720308159722 8.765813106770834  L 19.69720308159722 10.088604246093754  L 13.764203428819439 10.088604246093754  Z M 13.764203428819439 12.968333125  L 13.764203428819444 11.645541985677083  L 19.69720308159722 11.645541985677083  L 19.69720308159722 12.968333125  L 13.764203428819439 12.968333125  Z M 13.764203428819439 15.613824825520833  L 13.764203428819444 14.291033686197917  L 19.69720308159722 14.291033686197917  L 19.69720308159722 15.613824825520833  L 13.764203428819439 15.613824825520833  Z " fill-rule="nonzero" fill="#272636" stroke="none" transform="matrix(1 0 0 1 771 12 )" />
  </g>
</svg>