<?xml version="1.0" encoding="utf-8"?>
<svg version="1.1" xmlns:xlink="http://www.w3.org/1999/xlink" width="12px" height="12px" xmlns="http://www.w3.org/2000/svg">
  <g transform="matrix(1 0 0 1 -356 -6 )">
    <path d="M 4.1865234375 11.291015625  C 4.1865234375 11.513671875  4.004882812500002 11.6953125  3.779296875 11.6953125  C 3.5566406249999982 11.6953125  3.375 11.513671874999996  3.375 11.291015625  L 3.375 6.503906250000002  C 3.375 6.433593750000002  3.3574218749999982 6.3632812500000036  3.3222656249999982 6.301757812500002  L 0.9521484374999982 2.1679687500000018  C 0.7353515624999982 1.7871093750000018  0.7353515624999982 1.3330078125000018  0.9550781249999982 0.9550781250000018  C 1.1748046874999982 0.5771484375000036  1.5673828124999982 0.3486328125000018  2.0068359374999982 0.3486328125000018  L 10.0517578125 0.3486328125000018  C 10.482421875 0.3486328125000018  10.8720703125 0.5683593750000018  11.0947265625 0.9404296875000018  C 11.3173828125 1.3125000000000018  11.326171875 1.7578125000000018  11.1240234375 2.1386718750000018  L 8.891601562499996 6.298828125000002  C 8.859374999999996 6.357421875000002  8.844726562499996 6.4248046875  8.844726562499996 6.489257812500002  L 8.844726562499996 9.1962890625  C 8.844726562499996 9.4189453125  8.663085937499996 9.6005859375  8.4404296875 9.6005859375  C 8.2177734375 9.6005859375  8.0361328125 9.418945312499996  8.0361328125 9.1962890625  L 8.0361328125 6.489257812500002  C 8.0361328125 6.2900390625000036  8.0859375 6.0908203125  8.1796875 5.9150390625  L 10.412109375 1.7548828125  C 10.5087890625 1.5732421875000018  10.4384765625 1.4150390625  10.403320312500004 1.3564453125  C 10.368164062500004 1.2978515625  10.262695312500004 1.16015625  10.054687500000004 1.16015625  L 2.0068359375 1.16015625  C 1.7958984375 1.16015625  1.6904296875 1.30078125  1.6552734375 1.3623046875  C 1.6201171875 1.423828125  1.5498046874999982 1.5849609375  1.6552734375 1.7666015625  L 4.025390625 5.900390625  C 4.130859375000002 6.0849609375  4.1865234375 6.29296875  4.1865234375 6.503906250000002  L 4.1865234375 11.291015625  Z " fill-rule="nonzero" fill="#000000" stroke="none" transform="matrix(1 0 0 1 356 6 )" />
  </g>
</svg>