<?xml version="1.0" encoding="utf-8"?>
<svg version="1.1" xmlns:xlink="http://www.w3.org/1999/xlink" width="26px" height="26px" xmlns="http://www.w3.org/2000/svg">
  <g transform="matrix(1 0 0 1 -349 1 )">
    <path d="M 25.17578125 13.020507812499998  C 25.17578125 6.3232421874999964  19.7265625 0.876953125  13.029296875 0.876953125  C 6.33203125 0.876953125  0.882812499999999 6.326171875  0.882812499999999 13.023437500000002  C 0.882812499999999 13.723632812500004  0.958984374999999 14.435546875000004  1.0732421874999991 15.100585937500002  C 1.0732421874999991 15.103515625000005  1.0791015624999996 15.103515625000005  1.0820312499999991 15.106445312500004  C 1.1318359374999991 15.2763671875  1.2812499999999991 15.402343750000004  1.4658203124999991 15.402343750000004  C 1.6884765624999993 15.402343750000004  1.8701171874999991 15.220703125000004  1.8701171874999991 14.998046875000004  C 1.8701171874999991 14.983398437500004  1.8642578124999991 14.971679687500007  1.8613281249999984 14.959960937500007  L 1.867187499999998 14.957031250000007  C 1.7587890624999987 14.327148437500007  1.6914062499999982 13.685546875000005  1.6914062499999982 13.023437500000005  C 1.6914062499999982 6.762695312500005  6.765624999999998 1.6884765625000062  13.026367187499996 1.6884765625000062  C 19.287109374999993 1.6884765625000062  24.361328124999996 6.762695312500005  24.361328124999996 13.023437500000005  C 24.361328124999996 19.284179687500007  19.2900390625 24.3583984375  13.029296875 24.3583984375  C 8.845703125 24.3583984375  5.201171875 22.0849609375  3.23828125 18.712890625  C 3.23828125 18.7099609375  3.235351562500001 18.7099609375  3.235351562500001 18.70703125  L 3.217773437500001 18.6806640625  C 3.150390625 18.5546875  3.0185546875 18.4638671875  2.866210937500001 18.4638671875  C 2.643554687500001 18.4638671875  2.4619140625 18.6455078125  2.4619140625 18.8681640625  C 2.4619140625 18.9560546875  2.4970703125 19.0322265625  2.543945312500001 19.099609374999996  L 2.538085937500001 19.1025390625  C 4.638671875000001 22.7236328125  8.5498046875 25.1669921875  13.029296875 25.1669921875  C 19.7265625 25.1669921875  25.17578125 19.7177734375  25.17578125 13.020507812499998  Z " fill-rule="nonzero" fill="#000000" stroke="none" transform="matrix(1 0 0 1 349 -1 )" />
  </g>
</svg>