<?xml version="1.0" encoding="utf-8"?>
<svg version="1.1" xmlns:xlink="http://www.w3.org/1999/xlink" width="15px" height="26px" xmlns="http://www.w3.org/2000/svg">
  <g transform="matrix(1 0 0 1 -337 -302 )">
    <path d="M 14.221328125000003 12.972255859375  C 14.221328125000003 12.70134765625  14.093330078125 12.460263671875  13.894960937500002 12.304521484374998  L 1.982382812500001 0.3898632812499998  C 1.8287792968750018 0.23625976562500026  1.615439453125001 0.14239257812499995  1.3807714843749999 0.14239257812499995  C 0.9114355468750013 0.14239257812499995  0.5316894531250007 0.5221386718750001  0.5316894531250007 0.9914746093750001  C 0.5316894531250007 1.2261425781250002  0.6255566406250015 1.4394531249999996  0.7812988281250011 1.593056640625  L 12.164775390625 12.978671875000002  L 0.7812988281249993 24.362119140625  C 0.6276953124999984 24.515722656250002  0.5316894531249989 24.729062499999998  0.5316894531249989 24.96373046875  C 0.5316894531249989 25.43306640625  0.9114355468749995 25.8128125  1.3807714843749999 25.8128125  C 1.6154394531249991 25.8128125  1.8266406249999996 25.716806640625  1.982382812500001 25.563203124999998  L 14.0037109375 13.541875  L 13.999433593749998 13.541875  C 14.138095703124996 13.39251953125  14.221298828125 13.192011718749999  14.221298828125 12.972255859375  Z " fill-rule="nonzero" fill="#555555" stroke="none" transform="matrix(1 0 0 1 337 302 )" />
  </g>
</svg>