<?xml version="1.0" encoding="utf-8"?>
<svg version="1.1" xmlns:xlink="http://www.w3.org/1999/xlink" width="30px" height="30px" xmlns="http://www.w3.org/2000/svg">
  <g transform="matrix(1 0 0 1 -24 -103 )">
    <path d="M 39 103  C 47.400000000000006 103  54 109.6  54 118  C 54 126.4  47.400000000000006 133  39 133  C 30.6 133  24 126.4  24 118  C 24 109.6  30.6 103  39 103  Z " fill-rule="nonzero" fill="#ffffff" stroke="none" />
    <path d="M 39 103.5  C 47.120000000000005 103.5  53.5 109.88  53.5 118  C 53.5 126.12  47.120000000000005 132.5  39 132.5  C 30.88 132.5  24.5 126.12  24.5 118  C 24.5 109.88  30.88 103.5  39 103.5  Z " stroke-width="1" stroke="#797979" fill="none" />
  </g>
</svg>