<?xml version="1.0" encoding="utf-8"?>
<svg version="1.1" xmlns:xlink="http://www.w3.org/1999/xlink" width="24px" height="25px" xmlns="http://www.w3.org/2000/svg">
  <g transform="matrix(1 0 0 1 -331 -29 )">
    <path d="M 22.342302270507812 10.764555249023438  C 22.342302270507812 12.064408959960938  21.552033569335936 13.12006201171875  20.576996166992185 13.120061987304688  C 20.239433855856774 13.11273345887943  19.91500312334511 12.98787237244707  19.659625439453123 12.767000781250001  C 20.060805765215314 11.43121382330576  20.112872147911915 10.014886821176818  19.81085334472656 8.653249169921875  L 19.814972387695313 8.6497185546875  L 19.80967646484375 8.6497185546875  C 18.984162339941975 4.871710021095112  15.638964200334012 2.1785284490715604  11.771817700612377 2.1785284490715604  C 10.152927228946622 2.1785284490715604  8.57001264842449 2.6561245725521525  7.221278759765626 3.5515145751953114  C 7.129155898743415 3.638799070910041  7.003113053629422 3.6808133526147064  6.877044067382814 3.66625947265625  C 6.552060196453523 3.66625947265625  6.288608715820312 3.4028079920230394  6.288608715820312 3.07782412109375  C 6.290990632065444 2.889283765111469  6.384935719729468 2.7136854746679298  6.5404590576171895 2.6070758056640617  L 6.53163251953125 2.594718676757812  C 8.081969537273727 1.5545117145035  9.906730115255593 0.9990658959005152  11.773699689968845 0.9990658959005152  C 16.22659910078085 0.9990658959005152  20.06970420448485 4.120718453650515  20.982428149414062 8.479072290039063  C 21.872736849589735 8.877441768464664  22.41692975132633 9.792043777596872  22.342302270507812 10.764555249023438  Z M 5.754897851562499 9.993116479492187  C 5.754897851562499 6.743277716265227  8.389412701616788 4.108762866210936  11.639251464843749 4.108762866210936  C 14.889090228070708 4.108762866210938  17.523605078124998 6.743277716265227  17.523605078124998 9.993116479492187  C 17.523605078124998 13.242955242719148  14.889090228070708 15.877470092773436  11.639251464843749 15.877470092773436  C 8.38941270161679 15.877470092773436  5.754897851562499 13.242955242719148  5.754897851562499 9.993116479492187  Z M 11.639251440429689 14.700599389648438  C 14.239122448314554 14.700599389648438  16.346734326171877 12.592987511791117  16.346734326171877 9.99311650390625  C 16.346734326171877 7.393245496021385  14.239122448314554 5.285633618164062  11.639251440429689 5.285633618164062  C 9.039380442079107 5.285633618164062  6.931768568171014 7.393245481141609  6.931768554687501 9.993116479492189  C 6.931768554687501 12.592987511791117  9.039380432544823 14.700599389648438  11.639251440429689 14.700599389648438  Z M 5.488925048828125 5.075562158203126  L 5.497751586914061 5.085565551757812  C 4.6225532132207325 6.110582986990436  4.013057607431598 7.335232656356933  3.7230305419921867 8.651483862304687  L 3.685370678710937 8.651483862304687  C 3.6965509521484368 8.658545092773437  3.705377490234375 8.670902221679688  3.716557739257812 8.678551879882813  C 3.4217675641391034 10.026228913435244  3.4738008614062545 11.42667356727154  3.8677856445312506 12.74875927734375  C 3.6086551866479444 12.981459565329622  3.274500925076393 13.113241650612215  2.9262890625 13.120061987304688  C 1.9512516601562502 13.120061987304688  1.1609829833984373 12.066174243164063  1.160982958984375 10.766320556640625  C 1.160982958984375 9.63299404296875  1.7617754638671874 8.687966845703126  2.561459130859375 8.463772973632814  C 2.8868738890387586 6.93309345259591  3.5897874830030263 5.508049927594939  4.606272021484375 4.318245849609376  C 4.714327959243684 4.176872548320065  4.881438782574505 4.093100103413528  5.059367236328124 4.091109790039064  C 5.060619284034552 4.091101741267849  5.061871354377572 4.09109771685106  5.063123427954439 4.09109771685106  C 5.385832414268191 4.09109771685106  5.647439736548189 4.352705039131058  5.647439736548189 4.67541402544481  C 5.647439736548189 4.824107076750543  5.590752168761369 4.967206903818716  5.488925048828125 5.075562158203126  Z M 0.0017653076171870313 24.493340673828126  C 0.0007802732845808684 21.120047667878666  1.4522568756637573 17.909647277262632  3.9854727050781245 15.682109570312502  C 4.000183593749999 15.660337451171873  4.167299243164062 15.520878271484378  4.352656372070312 15.369650390625003  C 4.352656372070312 15.373769433593754  4.359129150390625 15.377300048828124  4.362659765625 15.381419091796877  C 4.476455060338201 15.296670213496713  4.611919388585496 15.24587109040398  4.7533808593749995 15.234898681640626  C 4.942785080511506 15.254182437952762  5.121994683453906 15.330049207140878  5.267673364257812 15.452619775390627  C 6.818278957348496 17.472499726363736  9.219936200323147 18.656541756693027  11.766363643166796 18.656541756693027  C 14.320605605214261 18.656541756693027  16.728707176696204 17.465258453837297  18.27856765136719 15.434966723632815  L 18.29504384765625 15.441439501953127  C 18.504636307793632 15.182539602182251  18.883558037588326 15.140553814645791  19.144744506835938 15.347289843750003  C 19.146084732719192 15.34609110554779  19.148111776069868 15.346091105547789  19.149452001953122 15.347289843750003  C 19.220652685546874 15.377300048828124  19.55311865234375 15.700351049804686  19.55194177246094 15.682697998046882  C 22.085658860264015 17.909776453568632  23.53778402582411 21.11997431490585  23.537414477539063 24.493340673828126  C 23.537414477539063 24.493340673828126  14.615557519531249 24.5162896484375  11.461543994140625 24.529823681640625  C 11.154443113510881 24.51072635959068  10.915149565910653 24.25608990813838  10.915149565910653 23.94839580908375  C 10.915149565910653 23.629747244042125  11.17116971462563 23.37022612874483  11.489788891601561 23.365898535156248  L 11.489788891601561 23  L 22.29758117675781 23  C 22.010844087600624 20.74516439415331  20.77575283105216 18.35085207115238  18.829931591796875 16.614779614257813  C 17.0529611216159 18.658996878959403  14.477295113880704 19.83281304983665  11.768707238769531 19.83281304983665  C 9.06011936365836 19.83281304983665  6.484453355923163 18.658996878959403  4.707482885742187 16.614779614257813  C 2.7614435642847757 18.35075724493256  1.5261366721016638 20.745081298541276  1.2392448730468741 23.337065185546873  L 2.710333276367187 23.337065185546873  L 2.710333276367187 23.362367919921873  C 2.474959130859374 23.327061791992186  2.3402074218749993 23.380609423828123  2.710333276367187 23.368252270507814  L 2.710333276367187 23.362367919921873  C 3.0362958608311184 23.367588732383823  3.3021163431670235 23.625166718977727  3.3175985595703112 23.950803271484375  C 3.314426006015513 24.25997070792199  3.07252695607482 24.513951860428993  2.763880883789062 24.532177416992187  C 2.1548502929687494 24.5192318359375  0.001765283203124246 24.493340673828126  0.0017653076171870313 24.493340673828126  Z M 11.461543994140627 24.52982368164063  L 11.458601806640626 24.52982368164063  C 11.475078002929688 24.52982368164063  11.48861201171875 24.539238647460937  11.505088208007813 24.539238623046877  C 9.838050830078124 24.539238623046877  10.166397753906251 24.535119580078128  11.461543994140627 24.52982368164063  Z M 2.7621156005859375 24.532177416992187  C 2.96394892578125 24.539238647460937  2.996901318359375 24.539238647460937  2.727397900390625 24.539238623046874  C 2.739755053710937 24.539238623046874  2.749758447265625 24.532765844726562  2.7621156005859375 24.532177416992187  Z M 5.060544116210938 23.365898535156248  L 5.0623094238281245 23.365898535156248  L 5.0623094238281245 23.337065185546873  L 9.136047436523437 23.337065185546873  L 9.136047436523437 23.365898535156248  C 9.14252021484375 23.365898535156248  9.147816137695312 23.362367919921873  9.154288940429687 23.362367919921873  C 9.479272761757587 23.362367919921873  9.742724242390796 23.625819400555077  9.742724242390796 23.95080327148437  C 9.742724242390796 24.275787142413662  9.479272761757587 24.53923862304687  9.154288890828296 24.53923862304687  L 5.08113935546875 24.53923862304687  C 4.769909272101398 24.521192591887136  4.526765997353299 24.263542775130777  4.526765997353299 23.951789949909468  C 4.526765997353299 23.647981711803297  4.758049308641915 23.394117977655288  5.060544116210938 23.365898535156248  Z " fill-rule="nonzero" fill="#4076fe" stroke="none" transform="matrix(1 0 0 1 331 29 )" />
  </g>
</svg>