<?xml version="1.0" encoding="utf-8"?>
<svg version="1.1" xmlns:xlink="http://www.w3.org/1999/xlink" width="15px" height="13px" xmlns="http://www.w3.org/2000/svg">
  <g transform="matrix(1 0 0 1 -12 -32 )">
    <path d="M 1.5637651821862357 9.169230769230769  L 4.008097165991902 7.384615384615383  L 6.437246963562754 9.169230769230769  L 5.511133603238867 6.276923076923078  L 7.940283400809718 4.476923076923078  L 4.934210526315789 4.476923076923078  L 4.008097165991902 1.5692307692307679  L 3.0668016194331984 4.476923076923078  L 0.060728744939271384 4.476923076923078  L 2.4898785425101218 6.276923076923078  L 1.5637651821862357 9.169230769230769  Z M 11.067813765182189 3.184615384615384  L 11.143724696356276 2.0307692307692307  L 12.267206477732794 1.7538461538461547  L 11.20445344129555 1.3076923076923066  L 11.28036437246964 0.1538461538461533  L 10.551619433198384 1.0461538461538453  L 9.473684210526319 0.6000000000000001  L 10.08097165991903 1.5846153846153839  L 9.352226720647774 2.4769230769230774  L 10.460526315789476 2.2  L 11.067813765182189 3.184615384615384  Z M 11.067813765182187 12.876923076923077  L 11.143724696356276 11.707692307692309  L 12.267206477732794 11.430769230769233  L 11.20445344129555 11  L 11.28036437246964 9.830769230769233  L 10.551619433198384 10.723076923076924  L 9.473684210526319 10.27692307692308  L 10.08097165991903 11.276923076923083  L 9.352226720647774 12.169230769230772  L 10.460526315789476 11.892307692307696  L 11.067813765182187 12.876923076923077  Z M 13.284412955465587 6.0769230769230775  L 13.81578947368421 5.046153846153845  L 14.954453441295549 5.230769230769233  L 14.149797570850206 4.4  L 14.681174089068826 3.3692307692307684  L 13.648785425101217 3.89230769230769  L 12.85931174089069 3.046153846153845  L 13.011133603238868 4.2  L 11.993927125506074 4.723076923076923  L 13.117408906882591 4.923076923076923  L 13.284412955465587 6.0769230769230775  Z M 12.555668016194328 9.923076923076927  L 13.4665991902834 9.215384615384615  L 14.407894736842104 9.861538461538464  L 14.028340080971658 8.76923076923077  L 14.92408906882591 8.046153846153848  L 13.785425101214573 8.092307692307696  L 13.39068825910931 6.9846153846153864  L 13.071862348178133 8.107692307692309  L 11.918016194331981 8.153846153846159  L 12.874493927125506 8.800000000000004  L 12.555668016194328 9.923076923076927  Z " fill-rule="nonzero" fill="#fff100" stroke="none" transform="matrix(1 0 0 1 12 32 )" />
  </g>
</svg>