<?xml version="1.0" encoding="utf-8"?>
<svg version="1.1" xmlns:xlink="http://www.w3.org/1999/xlink" width="23px" height="23px" xmlns="http://www.w3.org/2000/svg">
  <g transform="matrix(1 0 0 1 -331 -30 )">
    <path d="M 21.739156030273442 9.880477001953127  C 21.738567602539067 11.10618786621094  20.922407739257817 12.241279663085939  20.003271704101564 12.241279687499999  C 19.639996370858057 12.255639585214583  19.280917128354748 12.159406344784358  18.973509814453127 11.965303491210936  C 19.124380264807893 11.25121773710933  19.169779934923373 10.518875521358718  19.108261523437506 9.791623266601563  C 19.107213786062303 9.232544772463873  19.045857695535446 8.675210568516299  18.925258105468753 8.129293359375001  C 18.92633743591457 8.127811770668165  18.927747931511256 8.126602787579777  18.929377172851567 8.125762768554688  L 18.924081250000004 8.125762768554688  C 18.242896651550094 4.601806992292541  15.157828061888658 2.0562551967587916  11.56863920898438 2.0566404296875005  C 10.080581936770699 2.0065517357906018  8.612206293997634 2.4080062166700036  7.356618896484379 3.208208447265626  C 7.278603457102032 3.1676856754450062  7.188783779183849 3.156015365293252  7.103003247070318 3.1752560546875017  C 7.102367881177155 3.1752584846078036  7.101732511218241 3.1752596995712867  7.101097140678553 3.1752596995712867  C 6.825835792077578 3.1752596995712867  6.602692379936367 2.9521162874300746  6.602692379936367 2.6768549388290994  C 6.602692379936367 2.66231813428241  6.603328364947142 2.6477882891467077  6.604598510742192 2.6333070800781258  C 6.606147670960953 2.4560745506324313  6.693984979853841 2.290720819488718  6.839972656250005 2.1902152587890638  L 6.8311461181640665 2.1784465576171885  C 8.293033293534872 1.1974785555506537  10.013738824849208 0.6736590308510587  11.774253617343733 0.6736590308510587  C 15.972532920939628 0.6736590308510587  19.595987596441322 3.616577719009728  20.45695537109376 7.725626708984376  C 21.29659238608926 8.10099019907535  21.80979495645531 8.963471980837266  21.739156030273442 9.880477001953127  Z M 11.646312695312501 3.60363701171875  L 11.647489550781248 3.60363701171875  C 14.712350977905519 3.6036369805134822  17.19643503417969 6.087721036787652  17.19643503417969 9.151994011763483  C 17.19643503417969 12.216266986739312  14.712350977905519 14.700351043013484  11.648078002929688 14.700351043013484  C 8.583805040140273 14.700351043013484  6.099720988913882 12.216267005758167  6.099720971679688 9.15199404296875  C 6.0993959474508905 6.088275806298292  8.58259451033383 3.6042869185534427  11.646312695312501 3.60363701171875  Z M 11.008448754882814 13.464048364257811  L 11.009625634765625 13.464048364257811  C 11.036165003588556 13.464553420442758  11.062708576998439 13.464805965679572  11.089252751110088 13.464805965679572  C 13.400538082364818 13.464805965679572  15.274205046031962 11.591139002012428  15.274205046031962 9.279853670757696  C 15.274205046031962 9.237226332313881  15.27355375187785 9.194601481761925  15.272251391601563 9.15199404296875  C 15.27493848265708 9.09191711499059  15.276282531586528 9.03178763433835  15.276282531586528 8.971650642946747  C 15.276282531586528 6.742586231900069  13.469268793219142 4.935572493532685  11.240204382172465 4.935572493532685  C 11.191577787840416 4.935572493532685  11.142955164147311 4.936451271980366  11.094360327148438 4.9382083984375  C 8.642938598632814 4.9382083984375  7.210686938476562 6.703514477539063  7.210686938476562 9.15199404296875  C 7.210686938476562 11.600473608398438  8.557027050781251 13.464048388671875  11.008448754882814 13.464048364257811  Z M 5.846105322265625 4.515123388671874  L 5.8566971679687505 4.524538354492188  C 5.0316369885200665 5.491079344626303  4.457104284176316 6.645803168324139  4.1837754150390625 7.886858007812501  L 4.148469311523438 7.886858007812501  C 4.159061157226563 7.893330786132813  4.166710815429688 7.905099511718749  4.17730263671875 7.912160717773438  C 3.899840205095459 9.182943776299814  3.949035583090916 10.503323412544036  4.320292431640626 11.749936157226564  C 4.075160096743232 11.969706752225859  3.759158420711858 12.093977074163305  3.4299897216796884 12.10005520019531  C 2.5108536865234377 12.10005520019531  1.765306079101563 11.106187866210938  1.765306079101563 9.880477001953127  C 1.6894325142492186 8.94724754014793  2.2225971222739633 8.071147671494352  3.0863434814453137 7.709738964843751  C 3.392766040827374 6.266338278926392  4.055459712596521 4.922542764550252  5.014057714843751 3.800762841796875  C 5.115999703918468 3.6675369620011855  5.273519865495818 3.588559918608688  5.441261791992188 3.586572387695312  C 5.7477215833152995 3.5865723876953117  5.996156334172737 3.8350071276222  5.99615634765625 4.141466918945312  C 5.995267881500479 4.280527851150613  5.941640622002945 4.414070240566445  5.846105322265625 4.515123388671874  Z M 4.350302636718753 15.020459887695312  L 4.3514794921875 15.020459887695312  C 4.383843432617188 14.971619750976561  5.198826416015626 14.506755810546872  5.198826416015626 14.50675583496094  C 6.633329308451345 16.693563713356106  9.072766132472978 18.010799705966974  11.688091589355471 18.010799705966974  C 14.30341704623797 18.010799705966974  16.7428538702596 16.693563713356106  18.17735676269531 14.506755834960936  C 18.17735676269531 14.506755834960936  19.032353344726562 15.191106152343748  19.028822729492187 15.206405468749997  C 21.328428125 17.23944963378906  22.866598168945313 19.513163891601558  22.866598168945313 22.823701245117185  C 22.866598168945313 22.823701245117185  6.1144318359375 22.86724545898437  11.524506567382812 22.86724545898437  C 11.521564626179092 22.86729240482978  11.518622357251504 22.867315878873036  11.515680041503904 22.867315878873036  C 11.210156301291645 22.867315878873036  10.962480373568365 22.619639951149757  10.962480373568365 22.314116210937495  C 10.962480373568365 22.012033921683315  11.204809680119816 21.765806808776667  11.506853515625002 21.760986962890623  L 11.506853515625002 21.73333051757812  L 20.849441748046875 21.728034594726562  C 20.574642431640626 19.21659248046875  20.12507780761719 18.455745556640622  18.340353369140626 16.8552013671875  C 16.713918017578127 18.7075958984375  14.16834665527344 19.18305166015625  11.509207250976567 19.18305166015625  C 8.850067846679691 19.18305166015625  6.570469262695315 17.4577591796875  4.943445483398441 15.6053646484375  C 3.1632196575352016 17.17557795807955  2.053265840780807 19.36894779091362  1.8423911132812523 21.733330517578125  L 3.226979516601565 21.733330517578125  L 3.226979516601565 21.760986962890623  C 2.51085368652344 21.784524365234375  3.79952712402344 21.54444274902344  3.7995271240234394 22.31235090332031  C 3.7995271240234394 22.61881069464342  3.5510923840965507 22.86724544550086  3.2446325927734403 22.867245458984375  C 4.269098559570315 22.867245458984375  0.6731700683593775 22.823701245117185  0.6731700439453151 22.823701245117185  C 0.6719931640625026 19.51316389160156  2.0506972167968778 17.054092529296874  4.350302636718753 15.020459887695312  Z M 5.445380834960938 21.760986962890623  L 5.44655771484375 21.760986962890623  L 5.44655771484375 21.733330517578125  L 9.287275317382813 21.733330517578125  L 9.287275317382813 21.760986962890623  C 9.293748095703124 21.760986962890623  9.298455590820312 21.757456347656248  9.304928393554686 21.757456347656248  C 9.611388194412083 21.757456347656248  9.85982294921875 22.00589110246291  9.85982294921875 22.31235090332031  C 9.85982294921875 22.618810704177708  9.611388194412083 22.86724545898437  9.304928393554686 22.86724545898437  L 5.464210766601562 22.86724545898437  C 5.461072728753689 22.86729887239396  5.457934293178406 22.86732558054931  5.454795800781249 22.86732558054931  C 5.14926670248114 22.86732558054931  4.901586431169436 22.619645309237605  4.901586431169436 22.314116210937495  C 4.901586431169436 22.01225761611531  5.14356595845651 21.766124237327624  5.445380834960938 21.760986962890623  Z " fill-rule="nonzero" fill="#48bcf5" stroke="none" transform="matrix(1 0 0 1 331 30 )" />
  </g>
</svg>